<svg id="Capa_1" data-name="Capa 1" xmlns="http://www.w3.org/2000/svg" viewBox="0 0 60 60"><defs><style>.cls-1{fill:#020202;}.cls-2{fill:#fbfbfb;}</style></defs><title>Mesa de trabajo 1</title><path class="cls-1" d="M30,60A30,30,0,1,1,60,30,30,30,0,0,1,30,60ZM3.61,30A26.39,26.39,0,1,0,30.08,3.61,26.42,26.42,0,0,0,3.61,30Z"/><path class="cls-2" d="M3.61,30A26.39,26.39,0,1,1,29.88,56.39,26.41,26.41,0,0,1,3.61,30Zm25.11,3a9.81,9.81,0,0,0,4.39.29c2-.44,4-.77,6-1.05a35,35,0,0,1,7.72-.51,36.61,36.61,0,0,1,4.53,1c.44.1.92.23,1.24-.2a1.42,1.42,0,0,0,0-1.41,2.75,2.75,0,0,0-1-1.19,13,13,0,0,0-1.83-1.18c-.81-.42-1.62-.86-2.42-1.29a.75.75,0,0,1-.38-1.1,19,19,0,0,0,1.27-4.45,3.36,3.36,0,0,0-3.47-4c-.24,0-.47,0-.7.06l-3.84.56c-.33,0-.54.06-.5-.38.29-2.83,0-2.86,3-3.49.13,0,.28,0,.42,0a7.82,7.82,0,0,1,3.31.54c.66.23,1.06-.05,1.06-.66A4.87,4.87,0,0,0,44,10.05a6.07,6.07,0,0,0-3.19.28c-2.39.77-4.77,1.57-7.15,2.36a7.08,7.08,0,0,1-5.35.12,2.7,2.7,0,0,0-.9-.16c-.58-.05-.91.22-.88.82a3.1,3.1,0,0,0,.95,2.28c1.4,1.22,2.92,2.14,4.92,1.67.41-.09.83-.12,1.25-.17s1.16-.42,1.38-.15-.1,1-.15,1.47A2,2,0,0,1,33,20.51a11.73,11.73,0,0,1-5.24.09c-.32-.08-.66-.14-.9.19s0,.62.21.88c.52.67,1.17,1.22,1.75,1.84,1.15,1.24,2.44,1.88,4.13,1.14H33c.39-.11.48,0,.42.42-.17,1.07-.43,2.11-.68,3.16,0,.16,0,.31-.27.37-2.25.56-4.42.66-6.33-1-.56-.48-1.1-1-1.67-1.42-.31-.25-.67-.54-1.08-.4-.72.24-.72-.1-.69-.65.18-3.6.34-7.2.51-10.79.1-2.11-.75-3.15-2.83-3.44a17.43,17.43,0,0,0-2-.11,3.71,3.71,0,0,0-2.88,1.39c-.39.44-.45.75,0,1.23a6.47,6.47,0,0,1,1.85,3.64,51.83,51.83,0,0,1,.3,5.57c-.05,5-.53,10-.77,14.94-.12,2.42-.37,4.84-.26,7.26a5.38,5.38,0,0,0,3.4,4.71,1,1,0,0,0,1.38-.42A4.92,4.92,0,0,0,22,46.91c.38-3.44.39-6.9.57-10.36a29,29,0,0,1,.34-4.08l.85,2c.68,1.62,1.48,3.09,3.39,3.56a1.32,1.32,0,0,1,1,1.32,23.25,23.25,0,0,1-.1,5.84c-.36,1.89.47,3,1.82,4,.21.15.41.32.63.46a1.87,1.87,0,0,0,2.35,0,3,3,0,0,1,1.35-.57,60.66,60.66,0,0,1,6.72-.79,21.56,21.56,0,0,1,5.2-.19c.49.07.63-.09.73-.53.75-3.25,1.49-6.5,2.3-9.73a3,3,0,0,0-.89-3c-1.59-1.75-3.56-2-5.75-1.66-3.71.56-7.44,1.08-11.16,1.63C29.33,35.06,29.28,35,28.72,33ZM16.58,26.6c0-.73-.09-1.46-.1-2.18,0-.44-.15-.69-.6-.78-.62-.12-1.23-.32-1.85-.42-2.16-.36-2.15-.35-2.26,1.85A25.61,25.61,0,0,1,7.35,37.94a1.35,1.35,0,0,0-.21,1.31A9.52,9.52,0,0,0,8.73,42a1.33,1.33,0,0,0,2,.29,6.74,6.74,0,0,0,2.31-2.79,49.3,49.3,0,0,0,2.81-8A18.25,18.25,0,0,0,16.58,26.6Z"/><path class="cls-1" d="M28.72,33c.56,2.08.61,2.11,2.56,1.83,3.72-.55,7.45-1.07,11.16-1.63,2.19-.33,4.16-.09,5.75,1.66a3,3,0,0,1,.89,3c-.81,3.23-1.55,6.48-2.3,9.73-.1.44-.24.6-.73.53a21.56,21.56,0,0,0-5.2.19,60.66,60.66,0,0,0-6.72.79,3,3,0,0,0-1.35.57,1.87,1.87,0,0,1-2.35,0c-.22-.14-.42-.31-.63-.46-1.35-1-2.18-2.08-1.82-4a23.25,23.25,0,0,0,.1-5.84,1.32,1.32,0,0,0-1-1.32c-1.91-.47-2.71-1.94-3.39-3.56l-.85-2a29,29,0,0,0-.34,4.08c-.18,3.46-.19,6.92-.57,10.36a4.92,4.92,0,0,1-.64,2.21,1,1,0,0,1-1.38.42,5.38,5.38,0,0,1-3.4-4.71c-.11-2.42.14-4.84.26-7.26.24-5,.72-9.95.77-14.94a51.83,51.83,0,0,0-.3-5.57,6.47,6.47,0,0,0-1.85-3.64c-.42-.48-.36-.79,0-1.23a3.71,3.71,0,0,1,2.88-1.39,17.43,17.43,0,0,1,2,.11c2.08.29,2.93,1.33,2.83,3.44-.17,3.59-.33,7.19-.51,10.79,0,.55,0,.89.69.65.41-.14.77.15,1.08.4.57.46,1.11.94,1.67,1.42,1.91,1.64,4.08,1.54,6.33,1,.22-.06.23-.21.27-.37.25-1,.51-2.09.68-3.16.06-.39,0-.53-.42-.42h-.07c-1.69.74-3,.1-4.13-1.14-.58-.62-1.23-1.17-1.75-1.84-.2-.26-.46-.53-.21-.88s.58-.27.9-.19A11.73,11.73,0,0,0,33,20.51a2,2,0,0,0,1.86-1.94c.05-.51.42-1.14.15-1.47s-.9.09-1.38.15-.84.08-1.25.17c-2,.47-3.52-.45-4.92-1.67a3.1,3.1,0,0,1-.95-2.28c0-.6.3-.87.88-.82a2.7,2.7,0,0,1,.9.16,7.08,7.08,0,0,0,5.35-.12c2.38-.79,4.76-1.59,7.15-2.36A6.07,6.07,0,0,1,44,10.05a4.87,4.87,0,0,1,3.61,4.43c0,.61-.4.89-1.06.66a7.82,7.82,0,0,0-3.31-.54c-.14,0-.29,0-.42,0-3,.63-2.7.66-3,3.49,0,.44.17.43.5.38L44.12,18c.23,0,.46-.05.7-.06a3.36,3.36,0,0,1,3.47,4A19,19,0,0,1,47,26.32a.75.75,0,0,0,.38,1.1c.8.43,1.61.87,2.42,1.29a13,13,0,0,1,1.83,1.18,2.75,2.75,0,0,1,1,1.19,1.42,1.42,0,0,1,0,1.41c-.32.43-.8.3-1.24.2a36.61,36.61,0,0,0-4.53-1,35,35,0,0,0-7.72.51c-2,.28-4,.61-6,1.05A9.81,9.81,0,0,1,28.72,33Zm13.33,4.38c-.77.08-1.81.17-2.83.3-1.7.23-3.4.47-5.09.73-.62.1-1.26.31-1.24,1.1a31.85,31.85,0,0,0,.36,4.78.48.48,0,0,0,.59.45c.46-.06.93-.09,1.4-.15l6-.72a1.19,1.19,0,0,0,1.2-1.09c.28-1.45.6-2.9.77-4.37C43.37,37.07,43.48,37.36,42.05,37.33Zm.71-14.69c.05-.41-.08-.63-.54-.55a18.65,18.65,0,0,0-2.85.74.91.91,0,0,0-.61.71c-.2,1.11-.38,2.22-.58,3.32-.06.33,0,.41.37.36.83-.12,1.67-.22,2.5-.31a.53.53,0,0,0,.45-.28A13.08,13.08,0,0,0,42.76,22.64Z"/><path class="cls-1" d="M16.58,26.6a18.25,18.25,0,0,1-.7,4.87,49.3,49.3,0,0,1-2.81,8,6.74,6.74,0,0,1-2.31,2.79,1.33,1.33,0,0,1-2-.29,9.52,9.52,0,0,1-1.59-2.72,1.35,1.35,0,0,1,.21-1.31,25.61,25.61,0,0,0,4.42-12.87c.11-2.2.1-2.21,2.26-1.85.62.1,1.23.3,1.85.42.45.09.59.34.6.78C16.49,25.14,16.54,25.87,16.58,26.6Z"/><path class="cls-2" d="M42.05,37.33c1.43,0,1.32-.26,1.18,1-.17,1.47-.49,2.92-.77,4.37a1.19,1.19,0,0,1-1.2,1.09l-6,.72c-.47.06-.94.09-1.4.15a.48.48,0,0,1-.59-.45,31.85,31.85,0,0,1-.36-4.78c0-.79.62-1,1.24-1.1,1.69-.26,3.39-.5,5.09-.73C40.24,37.5,41.28,37.41,42.05,37.33Z"/><path class="cls-2" d="M42.76,22.64a13.08,13.08,0,0,1-1.26,4,.53.53,0,0,1-.45.28c-.83.09-1.67.19-2.5.31-.33.05-.43,0-.37-.36.2-1.1.38-2.21.58-3.32a.91.91,0,0,1,.61-.71,18.65,18.65,0,0,1,2.85-.74C42.68,22,42.81,22.23,42.76,22.64Z"/></svg>