<svg id="Capa_1" data-name="Capa 1" xmlns="http://www.w3.org/2000/svg" viewBox="0 0 60 60"><defs><style>.cls-1{fill:#040303;}.cls-2{fill:#c70000;}.cls-3{fill:#030100;}.cls-4{fill:#fde900;}</style></defs><title>Mesa de trabajo 1</title><path class="cls-1" d="M30,7.49H49.37a.56.56,0,0,1,.46.18l10.06,9.7c.14.14.14.2,0,.35q-11.58,13.49-23.15,27-3.32,3.84-6.62,7.71c-.11.13-.16.14-.28,0Q21.58,42.75,13.29,33.1,6.71,25.4.1,17.72c-.12-.14-.15-.2,0-.35q5.06-4.85,10.08-9.71a.57.57,0,0,1,.44-.17Zm0,1H11a.52.52,0,0,0-.42.15l-1.7,1.65L1.46,17.41c-.11.11-.21.18-.06.35l4.15,4.83,6.52,7.59L19.59,39l5.58,6.51c1.57,1.83,3.15,3.66,4.71,5.49.1.12.15.11.24,0l5.34-6.23L42,37.09l5.55-6.47q3.44-4,6.85-8l4.19-4.87c.11-.13.1-.21,0-.32s-.45-.42-.67-.63q-4.21-4.06-8.42-8.14A.67.67,0,0,0,49,8.46Z"/><path class="cls-2" d="M30,8.47H49a.67.67,0,0,1,.51.21q4.2,4.08,8.42,8.14c.22.21.44.43.67.63s.13.19,0,.32l-4.19,4.87q-3.42,4-6.85,8L42,37.09l-6.55,7.63L30.12,51c-.09.11-.14.12-.24,0-1.56-1.83-3.14-3.66-4.71-5.49L19.59,39l-7.52-8.77L5.55,22.59,1.4,17.76c-.15-.17,0-.24.06-.35l7.41-7.14,1.7-1.65A.52.52,0,0,1,11,8.47H30Zm-8.27,29.6v0l1.44,1.68,6.64,7.74c.16.19.23.18.38,0q3.27-3.83,6.56-7.64L38,38.38l-.17,0a34,34,0,0,1-4.8.88,25.93,25.93,0,0,1-5.64-.14,41.26,41.26,0,0,1-4.54-.86A4.35,4.35,0,0,0,21.73,38.07ZM49.75,12v.29c0,1.78,0,3.56,0,5.34,0,.25,0,.34-.32.34q-4.17,0-8.34,0c-.26,0-.32-.1-.35-.32a6.61,6.61,0,0,0-2.1-4.05,10.88,10.88,0,0,0-5.29-2.53,22.07,22.07,0,0,0-5.68-.39,24.56,24.56,0,0,0-4.52.6,10,10,0,0,0-3.77,1.62,4.14,4.14,0,0,0-1.78,3,2.68,2.68,0,0,0,1.15,2.4,7,7,0,0,0,2.58,1.26,23.29,23.29,0,0,0,6.16.79c1.08,0,2.17,0,3.26,0a42.75,42.75,0,0,1,6.88.24,22.21,22.21,0,0,1,5.26,1.22,8.81,8.81,0,0,1,5.32,4.63c.1.22.17.11.26,0l7-8.4c.16-.18.15-.27,0-.44l-5.54-5.47A.25.25,0,0,0,49.75,12Zm-38,14.62.12.17,5.9,7c.16.2.26.21.44,0a4.68,4.68,0,0,1,2-1.19,8.48,8.48,0,0,1,4.44-.2A6.07,6.07,0,0,1,29,35.15a.22.22,0,0,0,.23.13c.46,0,.91,0,1.37,0a49.73,49.73,0,0,0,7.22-.2,8.2,8.2,0,0,0,2.83-.84,3.38,3.38,0,0,0,1.76-1.93,1.66,1.66,0,0,0-.76-2,7.25,7.25,0,0,0-2.11-.78,39.53,39.53,0,0,0-6.23-.74c-1-.07-2-.11-3-.18-1.57-.09-3.13-.19-4.7-.3-1-.06-2-.13-3-.22q-2.12-.2-4.23-.45-2.41-.3-4.8-.72Zm4.94-16c-.06,0-.07-.06-.09-.06H11.93a.4.4,0,0,0-.27.12l-7.19,7c-.12.11-.13.19,0,.32l4,4.71a.25.25,0,0,0,.2.15A20.09,20.09,0,0,1,16.73,10.6Zm21.8-.06a.45.45,0,0,0,.24.18c.5.3,1,.57,1.5.91a7.59,7.59,0,0,1,2,2.09c.12.17.17.16.32,0a3.47,3.47,0,0,0,1.13-2.93c0-.24-.09-.28-.3-.28H38.53Z"/><path class="cls-3" d="M49.75,12a.25.25,0,0,1,.18.13l5.54,5.47c.17.17.18.26,0,.44l-7,8.4c-.09.11-.16.22-.26,0a8.81,8.81,0,0,0-5.32-4.63,22.21,22.21,0,0,0-5.26-1.22,42.75,42.75,0,0,0-6.88-.24c-1.09,0-2.18.05-3.26,0a23.29,23.29,0,0,1-6.16-.79,7,7,0,0,1-2.58-1.26,2.68,2.68,0,0,1-1.15-2.4,4.14,4.14,0,0,1,1.78-3,10,10,0,0,1,3.77-1.62,24.56,24.56,0,0,1,4.52-.6,22.07,22.07,0,0,1,5.68.39,10.88,10.88,0,0,1,5.29,2.53,6.61,6.61,0,0,1,2.1,4.05c0,.22.09.32.35.32q4.17,0,8.34,0c.28,0,.32-.09.32-.34,0-1.78,0-3.56,0-5.34Zm1.08,2.26-.12.08v.28c0,1.34,0,2.68,0,4,0,.21,0,.27-.27.27q-5.16,0-10.32,0c-.23,0-.28-.08-.28-.28a5.92,5.92,0,0,0-.31-1.91,6.22,6.22,0,0,0-3.12-3.54,13.9,13.9,0,0,0-6-1.54,25.45,25.45,0,0,0-6.34.42,11.2,11.2,0,0,0-3.5,1.21A3.75,3.75,0,0,0,18.83,15a1.94,1.94,0,0,0,.74,2.74,6.6,6.6,0,0,0,2.15,1,23.57,23.57,0,0,0,5.8.72c1.3,0,2.61,0,3.92-.07a44.11,44.11,0,0,1,6.4.29A22.14,22.14,0,0,1,43.52,21a10.07,10.07,0,0,1,4.88,3.75c.14.2.18,0,.24,0l5.6-6.7c.1-.12.11-.18,0-.29-.43-.42-.87-.85-1.29-1.28C52.23,15.72,51.53,15,50.83,14.25Z"/><path class="cls-3" d="M11.79,26.61l1.78.32q2.38.42,4.8.72,2.11.26,4.23.45c1,.09,2,.16,3,.22,1.57.11,3.13.21,4.7.3,1,.07,2,.11,3,.18a39.53,39.53,0,0,1,6.23.74,7.25,7.25,0,0,1,2.11.78,1.66,1.66,0,0,1,.76,2,3.38,3.38,0,0,1-1.76,1.93,8.2,8.2,0,0,1-2.83.84,49.73,49.73,0,0,1-7.22.2c-.46,0-.91,0-1.37,0a.22.22,0,0,1-.23-.13,6.07,6.07,0,0,0-4.29-2.76,8.48,8.48,0,0,0-4.44.2,4.68,4.68,0,0,0-2,1.19c-.18.18-.28.17-.44,0l-5.9-7Zm2.5,1.44c0,.05,0,.08.05.1L18,32.49c.1.11.16.09.26,0a5.34,5.34,0,0,1,1.22-.66,9.36,9.36,0,0,1,5.68-.34,7.07,7.07,0,0,1,4.39,2.72c.07.1.15.09.25.1l3.26.05a27.11,27.11,0,0,0,5.17-.32A5.54,5.54,0,0,0,40.8,33a1.94,1.94,0,0,0,.69-1,.64.64,0,0,0-.3-.79,3.52,3.52,0,0,0-.67-.34,15.06,15.06,0,0,0-3.7-.78c-1.76-.22-3.54-.31-5.32-.42-3.32-.19-6.64-.37-9.95-.68-2-.2-4-.43-6-.73Z"/><path class="cls-3" d="M21.73,38.07a4.35,4.35,0,0,1,1.13.22,41.26,41.26,0,0,0,4.54.86,25.93,25.93,0,0,0,5.64.14,34,34,0,0,0,4.8-.88l.17,0-1.26,1.47q-3.28,3.82-6.56,7.64c-.15.18-.22.19-.38,0l-6.64-7.74-1.44-1.68ZM35.4,39.94a28,28,0,0,1-11-.33.74.74,0,0,0,.08.12l5.42,6.33c.12.14.18.14.3,0l3-3.45Z"/><path class="cls-3" d="M16.73,10.6A20.09,20.09,0,0,0,8.65,22.83a.25.25,0,0,1-.2-.15L4.45,18c-.11-.13-.1-.21,0-.32l7.19-7a.4.4,0,0,1,.27-.12h4.71S16.67,10.56,16.73,10.6ZM8.18,20.8a21,21,0,0,1,5.89-9.28H12.25c-.11,0-.17.08-.24.15l-6.23,6c-.12.12-.13.18,0,.32L8,20.65C8,20.71,8.07,20.79,8.18,20.8Z"/><path class="cls-3" d="M38.53,10.54H43.4c.21,0,.28,0,.3.28a3.47,3.47,0,0,1-1.13,2.93c-.15.14-.2.15-.32,0a7.59,7.59,0,0,0-2-2.09c-.47-.34-1-.61-1.5-.91A.45.45,0,0,1,38.53,10.54Zm3.13,1,.79.82a2.07,2.07,0,0,0,.25-.63c0-.14,0-.2-.14-.2Z"/><polygon class="cls-3" points="21.73 38.06 21.72 38.05 21.73 38.07 21.73 38.06"/><path class="cls-4" d="M50.83,14.25c.7.74,1.4,1.47,2.11,2.2.42.43.86.86,1.29,1.28.12.11.11.17,0,.29l-5.6,6.7c-.06.06-.1.24-.24,0A10.07,10.07,0,0,0,43.52,21a22.14,22.14,0,0,0-5.68-1.38,44.11,44.11,0,0,0-6.4-.29c-1.31,0-2.62.11-3.92.07a23.57,23.57,0,0,1-5.8-.72,6.6,6.6,0,0,1-2.15-1A1.94,1.94,0,0,1,18.83,15a3.75,3.75,0,0,1,1.72-1.73,11.2,11.2,0,0,1,3.5-1.21,25.45,25.45,0,0,1,6.34-.42,13.9,13.9,0,0,1,6,1.54,6.22,6.22,0,0,1,3.12,3.54,5.92,5.92,0,0,1,.31,1.91c0,.2,0,.28.28.28q5.16,0,10.32,0c.22,0,.27-.06.27-.27,0-1.35,0-2.69,0-4v-.28Z"/><path class="cls-4" d="M14.29,28.05l1.29.19c2,.3,4,.53,6,.73,3.31.31,6.63.49,10,.68,1.78.11,3.56.2,5.32.42a15.06,15.06,0,0,1,3.7.78,3.52,3.52,0,0,1,.67.34.64.64,0,0,1,.3.79,1.94,1.94,0,0,1-.69,1,5.54,5.54,0,0,1-2.57,1.05,27.11,27.11,0,0,1-5.17.32l-3.26-.05c-.1,0-.18,0-.25-.1a7.07,7.07,0,0,0-4.39-2.72,9.36,9.36,0,0,0-5.68.34,5.34,5.34,0,0,0-1.22.66c-.1.07-.16.09-.26,0l-3.66-4.34S14.32,28.1,14.29,28.05Z"/><path class="cls-4" d="M35.4,39.94l-2.29,2.67-3,3.45c-.12.14-.18.14-.3,0l-5.42-6.33a.74.74,0,0,1-.08-.12A28,28,0,0,0,35.4,39.94Z"/><path class="cls-4" d="M8.18,20.8c-.11,0-.14-.09-.19-.15L5.77,18c-.12-.14-.11-.2,0-.32l6.23-6c.07-.07.13-.15.24-.15h1.82A21,21,0,0,0,8.18,20.8Z"/><path class="cls-4" d="M41.66,11.52h.9c.17,0,.18.06.14.2a2.07,2.07,0,0,1-.25.63Z"/></svg>