<?xml version="1.0" encoding="UTF-8"?>
<!DOCTYPE svg PUBLIC "-//W3C//DTD SVG 1.1//EN" "http://www.w3.org/Graphics/SVG/1.1/DTD/svg11.dtd">
<svg xmlns="http://www.w3.org/2000/svg" version="1.1" width="767px" height="767px" style="shape-rendering:geometricPrecision; text-rendering:geometricPrecision; image-rendering:optimizeQuality; fill-rule:evenodd; clip-rule:evenodd" xmlns:xlink="http://www.w3.org/1999/xlink">
<g><path style="opacity:0.997" fill="#252021" d="M 363.5,19.5 C 503.542,17.0934 612.042,73.7601 689,189.5C 740.475,276.018 754.808,368.352 732,466.5C 705.081,564.91 647.915,640.077 560.5,692C 464.207,744.043 364.207,752.376 260.5,717C 158.818,677.318 87.6511,606.818 47,505.5C 8.00785,393.084 19.3412,286.084 81,184.5C 148.727,84.8654 242.894,29.8654 363.5,19.5 Z"/></g>
<g><path style="opacity:1" fill="#ee3f35" d="M 465.5,39.5 C 467.515,40.9238 469.848,41.5905 472.5,41.5C 482.207,44.2907 491.874,47.2907 501.5,50.5C 503.509,52.0652 505.843,53.0652 508.5,53.5C 581.297,81.9773 638.297,129.311 679.5,195.5C 679.427,197.027 680.094,198.027 681.5,198.5C 692.426,215.816 701.426,234.149 708.5,253.5C 708.166,256.491 709.166,258.824 711.5,260.5C 719.027,281.273 724.36,302.606 727.5,324.5C 727.444,329.731 728.111,334.731 729.5,339.5C 730.369,341.717 730.702,344.05 730.5,346.5C 730.5,351.833 730.5,357.167 730.5,362.5C 729.167,362.5 727.833,362.5 726.5,362.5C 706.688,354.425 687.021,346.091 667.5,337.5C 665.824,335.166 663.491,334.166 660.5,334.5C 659.609,333.89 658.609,333.557 657.5,333.5C 655.824,331.166 653.491,330.166 650.5,330.5C 650.167,330.5 649.833,330.5 649.5,330.5C 648.365,328.787 646.698,328.12 644.5,328.5C 640.752,327.142 637.086,325.809 633.5,324.5C 630.495,322.723 627.162,321.723 623.5,321.5C 621.485,320.076 619.152,319.41 616.5,319.5C 612.5,318.5 608.5,317.5 604.5,316.5C 602.485,315.076 600.152,314.41 597.5,314.5C 596.833,314.5 596.167,314.5 595.5,314.5C 593.485,313.076 591.152,312.41 588.5,312.5C 587.504,312.586 586.671,312.252 586,311.5C 585.802,309.618 585.302,307.952 584.5,306.5C 584.59,303.848 583.924,301.515 582.5,299.5C 582.5,299.167 582.5,298.833 582.5,298.5C 582.065,295.843 581.065,293.509 579.5,291.5C 565.666,258.668 542,236.002 508.5,223.5C 507.365,221.787 505.698,221.12 503.5,221.5C 482.123,214.831 460.457,213.831 438.5,218.5C 436.102,218.259 434.102,218.926 432.5,220.5C 399.428,229.964 374.261,249.63 357,279.5C 354.597,283.635 352.763,287.968 351.5,292.5C 329.077,293.191 306.744,294.858 284.5,297.5C 276.592,297.679 268.926,298.679 261.5,300.5C 255.28,300.957 249.28,301.957 243.5,303.5C 239.709,303.659 236.042,304.325 232.5,305.5C 228.96,305.753 225.627,306.419 222.5,307.5C 219.097,307.851 215.763,308.518 212.5,309.5C 209.848,309.41 207.515,310.076 205.5,311.5C 184.456,315.927 163.789,321.594 143.5,328.5C 137.834,329.39 132.5,331.057 127.5,333.5C 126.508,333.328 125.842,333.662 125.5,334.5C 118.302,335.675 111.635,338.009 105.5,341.5C 104.833,341.5 104.167,341.5 103.5,341.5C 99.0643,342.414 95.0643,344.081 91.5,346.5C 90.8333,346.5 90.1667,346.5 89.5,346.5C 87.0326,346.755 85.0326,347.755 83.5,349.5C 82.8333,349.5 82.1667,349.5 81.5,349.5C 79.0326,349.755 77.0326,350.755 75.5,352.5C 74.8333,352.5 74.1667,352.5 73.5,352.5C 71.0326,352.755 69.0326,353.755 67.5,355.5C 65.0733,355.523 62.74,356.023 60.5,357C 52.7284,359.87 45.0617,363.036 37.5,366.5C 35.631,364.365 34.9644,361.698 35.5,358.5C 35.5,356.833 35.5,355.167 35.5,353.5C 37.3216,346.749 38.3216,339.749 38.5,332.5C 39.3331,320.497 41.3331,308.831 44.5,297.5C 46.2766,294.495 47.2766,291.162 47.5,287.5C 47.5597,284.659 48.2264,281.993 49.5,279.5C 51.943,274.5 53.6096,269.166 54.5,263.5C 55.6858,259.742 57.0191,256.075 58.5,252.5C 60.8337,250.824 61.8337,248.491 61.5,245.5C 77.4029,206.004 100.07,171.004 129.5,140.5C 129.5,140.833 129.5,141.167 129.5,141.5C 123.789,149.588 119.122,158.255 115.5,167.5C 114.463,168.93 113.796,170.597 113.5,172.5C 113.5,172.833 113.5,173.167 113.5,173.5C 112.076,175.515 111.41,177.848 111.5,180.5C 105.826,204.473 112.16,224.473 130.5,240.5C 128.158,240.775 128.158,241.608 130.5,243C 145.927,252.129 162.594,255.463 180.5,253C 191.999,251.608 202.999,248.608 213.5,244C 221.694,240.408 229.361,236.075 236.5,231C 237.965,229.226 239.298,227.392 240.5,225.5C 243.974,222.198 247.641,219.032 251.5,216C 256.699,209.971 262.033,204.138 267.5,198.5C 269.229,197.883 270.729,196.883 272,195.5C 275.333,189.5 278.667,183.5 282,177.5C 282.61,174.173 283.11,170.839 283.5,167.5C 288.072,152.651 288.572,137.651 285,122.5C 280.516,109.855 272.35,100.522 260.5,94.5C 259.402,93.603 259.402,92.7697 260.5,92C 255.128,90.9297 249.795,89.7631 244.5,88.5C 243.167,88.5 241.833,88.5 240.5,88.5C 231.343,87.3424 222.009,87.1757 212.5,88C 211.263,88.2321 210.263,88.7321 209.5,89.5C 209.167,89.5 208.833,89.5 208.5,89.5C 205.848,89.4095 203.515,90.0762 201.5,91.5C 199.708,91.366 198.042,91.6993 196.5,92.5C 192.851,93.2667 189.518,94.6001 186.5,96.5C 183.167,97.8333 179.833,99.1667 176.5,100.5C 175.833,100.5 175.5,100.167 175.5,99.5C 192.988,85.579 211.988,73.9123 232.5,64.5C 236.836,64.1631 240.503,62.4965 243.5,59.5C 245.649,58.2638 247.982,57.2638 250.5,56.5C 253.491,56.8337 255.824,55.8337 257.5,53.5C 258.167,53.5 258.833,53.5 259.5,53.5C 261.967,53.2451 263.967,52.2451 265.5,50.5C 266.167,50.5 266.833,50.5 267.5,50.5C 271.395,49.5376 275.061,48.2043 278.5,46.5C 284.157,43.6757 290.157,42.009 296.5,41.5C 299.152,41.5905 301.485,40.9238 303.5,39.5C 306.679,38.2066 310.012,37.5399 313.5,37.5C 318.45,37.2301 323.117,36.2301 327.5,34.5C 329.903,34.552 332.236,34.2186 334.5,33.5C 339.731,33.5557 344.731,32.889 349.5,31.5C 388.676,28.0925 427.342,30.7592 465.5,39.5 Z"/></g>
<g><path style="opacity:1" fill="#8a2f2a" d="M 349.5,31.5 C 344.731,32.889 339.731,33.5557 334.5,33.5C 339.269,32.111 344.269,31.4443 349.5,31.5 Z"/></g>
<g><path style="opacity:1" fill="#a2332d" d="M 327.5,34.5 C 323.117,36.2301 318.45,37.2301 313.5,37.5C 317.883,35.7699 322.55,34.7699 327.5,34.5 Z"/></g>
<g><path style="opacity:1" fill="#b83730" d="M 303.5,39.5 C 301.485,40.9238 299.152,41.5905 296.5,41.5C 298.515,40.0762 300.848,39.4095 303.5,39.5 Z"/></g>
<g><path style="opacity:1" fill="#5b2826" d="M 465.5,39.5 C 468.152,39.4095 470.485,40.0762 472.5,41.5C 469.848,41.5905 467.515,40.9238 465.5,39.5 Z"/></g>
<g><path style="opacity:1" fill="#a0342d" d="M 278.5,46.5 C 275.061,48.2043 271.395,49.5376 267.5,50.5C 270.626,48.0103 274.292,46.677 278.5,46.5 Z"/></g>
<g><path style="opacity:1" fill="#5d2926" d="M 501.5,50.5 C 504.491,50.1663 506.824,51.1663 508.5,53.5C 505.843,53.0652 503.509,52.0652 501.5,50.5 Z"/></g>
<g><path style="opacity:1" fill="#af362f" d="M 265.5,50.5 C 263.967,52.2451 261.967,53.2451 259.5,53.5C 261.033,51.7549 263.033,50.7549 265.5,50.5 Z"/></g>
<g><path style="opacity:1" fill="#b3362f" d="M 257.5,53.5 C 255.824,55.8337 253.491,56.8337 250.5,56.5C 252.509,54.9348 254.843,53.9348 257.5,53.5 Z"/></g>
<g><path style="opacity:1" fill="#be3830" d="M 243.5,59.5 C 240.503,62.4965 236.836,64.1631 232.5,64.5C 235.74,62.049 239.407,60.3824 243.5,59.5 Z"/></g>
<g><path style="opacity:1" fill="#fcc6c2" d="M 240.5,88.5 C 230.135,88.2667 219.802,88.6 209.5,89.5C 210.263,88.7321 211.263,88.2321 212.5,88C 222.009,87.1757 231.343,87.3424 240.5,88.5 Z"/></g>
<g><path style="opacity:1" fill="#fefefe" d="M 240.5,88.5 C 241.833,88.5 243.167,88.5 244.5,88.5C 249.681,90.6745 255.014,92.6745 260.5,94.5C 272.35,100.522 280.516,109.855 285,122.5C 288.572,137.651 288.072,152.651 283.5,167.5C 279.13,178.239 273.796,188.572 267.5,198.5C 262.033,204.138 256.699,209.971 251.5,216C 247.641,219.032 243.974,222.198 240.5,225.5C 222.049,239.157 201.382,247.657 178.5,251C 161.317,252.749 145.317,249.249 130.5,240.5C 112.16,224.473 105.826,204.473 111.5,180.5C 112.924,178.485 113.59,176.152 113.5,173.5C 113.5,173.167 113.5,172.833 113.5,172.5C 115.213,171.365 115.88,169.698 115.5,167.5C 119.122,158.255 123.789,149.588 129.5,141.5C 131.914,140.089 133.581,138.089 134.5,135.5C 142.494,126.176 151.494,117.843 161.5,110.5C 163.749,109.92 165.415,108.587 166.5,106.5C 170.173,105 173.506,103 176.5,100.5C 179.833,99.1667 183.167,97.8333 186.5,96.5C 190.358,96.2299 193.691,94.8966 196.5,92.5C 198.042,91.6993 199.708,91.366 201.5,91.5C 204.152,91.5905 206.485,90.9238 208.5,89.5C 208.833,89.5 209.167,89.5 209.5,89.5C 219.802,88.6 230.135,88.2667 240.5,88.5 Z"/></g>
<g><path style="opacity:1" fill="#fccac7" d="M 208.5,89.5 C 206.485,90.9238 204.152,91.5905 201.5,91.5C 203.515,90.0762 205.848,89.4095 208.5,89.5 Z"/></g>
<g><path style="opacity:1" fill="#f56a5e" d="M 244.5,88.5 C 249.795,89.7631 255.128,90.9297 260.5,92C 259.402,92.7697 259.402,93.603 260.5,94.5C 255.014,92.6745 249.681,90.6745 244.5,88.5 Z"/></g>
<g><path style="opacity:1" fill="#fdc8c4" d="M 196.5,92.5 C 193.691,94.8966 190.358,96.2299 186.5,96.5C 189.518,94.6001 192.851,93.2667 196.5,92.5 Z"/></g>
<g><path style="opacity:1" fill="#d65147" d="M 175.5,99.5 C 175.5,100.167 175.833,100.5 176.5,100.5C 173.506,103 170.173,105 166.5,106.5C 169.208,103.791 172.208,101.458 175.5,99.5 Z"/></g>
<g><path style="opacity:1" fill="#cf9490" d="M 166.5,106.5 C 165.415,108.587 163.749,109.92 161.5,110.5C 162.585,108.413 164.251,107.08 166.5,106.5 Z"/></g>
<g><path style="opacity:1" fill="#e08780" d="M 134.5,135.5 C 133.581,138.089 131.914,140.089 129.5,141.5C 129.5,141.167 129.5,140.833 129.5,140.5C 130.833,138.5 132.5,136.833 134.5,135.5 Z"/></g>
<g><path style="opacity:1" fill="#fcbcb6" d="M 115.5,167.5 C 115.88,169.698 115.213,171.365 113.5,172.5C 113.796,170.597 114.463,168.93 115.5,167.5 Z"/></g>
<g><path style="opacity:1" fill="#f25549" d="M 283.5,167.5 C 283.11,170.839 282.61,174.173 282,177.5C 278.667,183.5 275.333,189.5 272,195.5C 270.729,196.883 269.229,197.883 267.5,198.5C 273.796,188.572 279.13,178.239 283.5,167.5 Z"/></g>
<g><path style="opacity:1" fill="#f9aaa4" d="M 113.5,173.5 C 113.59,176.152 112.924,178.485 111.5,180.5C 111.41,177.848 112.076,175.515 113.5,173.5 Z"/></g>
<g><path style="opacity:1" fill="#a2332d" d="M 679.5,195.5 C 680.906,195.973 681.573,196.973 681.5,198.5C 680.094,198.027 679.427,197.027 679.5,195.5 Z"/></g>
<g><path style="opacity:1" fill="#5a2826" d="M 438.5,218.5 C 436.898,220.074 434.898,220.741 432.5,220.5C 434.102,218.926 436.102,218.259 438.5,218.5 Z"/></g>
<g><path style="opacity:1" fill="#a3342d" d="M 503.5,221.5 C 505.698,221.12 507.365,221.787 508.5,223.5C 506.597,223.204 504.93,222.537 503.5,221.5 Z"/></g>
<g><path style="opacity:1" fill="#575759" d="M 352.5,379.5 C 333.246,379.401 314.246,380.734 295.5,383.5C 251.888,386.991 208.888,394.158 166.5,405C 147.839,410.499 129.172,415.999 110.5,421.5C 94.9193,419.458 82.4193,412.125 73,399.5C 66.2642,390.245 62.0975,379.912 60.5,368.5C 60.5698,367.228 60.9032,366.062 61.5,365C 64.2813,364.478 66.6146,363.311 68.5,361.5C 138.82,333.186 211.82,314.02 287.5,304C 292.155,303.501 296.821,303.334 301.5,303.5C 319.67,302.433 337.67,301.1 355.5,299.5C 378.606,246.427 419.273,220.927 477.5,223C 529.83,231.684 563.663,261.184 579,311.5C 579.497,313.81 579.663,316.143 579.5,318.5C 600.629,322.265 621.295,327.765 641.5,335C 671.869,347.46 702.203,360.127 732.5,373C 733.227,374.399 733.727,375.899 734,377.5C 734.667,387.167 734.667,396.833 734,406.5C 732.489,419.555 730.655,432.555 728.5,445.5C 701.369,435.785 674.036,426.285 646.5,417C 620.536,409.092 594.203,402.592 567.5,397.5C 536.233,443.62 492.9,462.12 437.5,453C 399.02,441.832 372.187,417.665 357,380.5C 355.644,379.62 354.144,379.286 352.5,379.5 Z"/></g>
<g><path style="opacity:1" fill="#f14f43" d="M 240.5,225.5 C 239.298,227.392 237.965,229.226 236.5,231C 229.361,236.075 221.694,240.408 213.5,244C 202.999,248.608 191.999,251.608 180.5,253C 162.594,255.463 145.927,252.129 130.5,243C 128.158,241.608 128.158,240.775 130.5,240.5C 145.317,249.249 161.317,252.749 178.5,251C 201.382,247.657 222.049,239.157 240.5,225.5 Z"/></g>
<g><path style="opacity:1" fill="#a9352e" d="M 61.5,245.5 C 61.8337,248.491 60.8337,250.824 58.5,252.5C 58.9348,249.843 59.9348,247.509 61.5,245.5 Z"/></g>
<g><path style="opacity:1" fill="#262223" d="M 452.5,251.5 C 491.368,247.374 521.534,261.374 543,293.5C 559.844,326.278 557.844,357.945 537,388.5C 515.895,413.926 488.729,425.092 455.5,422C 416.777,413.61 392.944,390.11 384,351.5C 379.584,309.163 396.084,277.996 433.5,258C 439.893,255.662 446.226,253.495 452.5,251.5 Z"/></g>
<g><path style="opacity:1" fill="#a8352e" d="M 708.5,253.5 C 710.065,255.509 711.065,257.843 711.5,260.5C 709.166,258.824 708.166,256.491 708.5,253.5 Z"/></g>
<g><path style="opacity:1" fill="#807e7e" d="M 475.5,258.5 C 467.094,258.362 458.76,259.029 450.5,260.5C 453.534,258.982 456.867,258.149 460.5,258C 465.684,257.184 470.684,257.35 475.5,258.5 Z"/></g>
<g><path style="opacity:1" fill="#faf9f9" d="M 475.5,258.5 C 505.886,262.234 527.553,277.901 540.5,305.5C 541.589,310.767 543.256,315.767 545.5,320.5C 545.366,322.292 545.699,323.958 546.5,325.5C 546.673,334.195 546.34,342.862 545.5,351.5C 540.777,373.644 529.11,390.977 510.5,403.5C 503.765,406.538 497.098,409.538 490.5,412.5C 441.001,421.337 408.167,402.004 392,354.5C 385.694,317.961 397.861,289.461 428.5,269C 432.402,266.881 436.402,265.048 440.5,263.5C 443.152,263.59 445.485,262.924 447.5,261.5C 448.209,260.596 449.209,260.263 450.5,260.5C 458.76,259.029 467.094,258.362 475.5,258.5 Z"/></g>
<g><path style="opacity:1" fill="#bfbdbd" d="M 447.5,261.5 C 445.485,262.924 443.152,263.59 440.5,263.5C 442.515,262.076 444.848,261.41 447.5,261.5 Z"/></g>
<g><path style="opacity:1" fill="#97322c" d="M 54.5,263.5 C 53.6096,269.166 51.943,274.5 49.5,279.5C 50.3904,273.834 52.057,268.5 54.5,263.5 Z"/></g>
<g><path style="opacity:1" fill="#c4c2c2" d="M 461.5,276.5 C 463.641,275.837 465.975,275.503 468.5,275.5C 472.141,275.315 475.474,275.981 478.5,277.5C 477.167,277.5 475.833,277.5 474.5,277.5C 470.366,276.515 466.032,276.182 461.5,276.5 Z"/></g>
<g><path style="opacity:1" fill="#504e4f" d="M 461.5,276.5 C 466.032,276.182 470.366,276.515 474.5,277.5C 467.798,277.336 461.131,277.669 454.5,278.5C 456.515,277.076 458.848,276.41 461.5,276.5 Z"/></g>
<g><path style="opacity:1" fill="#b6b5b5" d="M 485.5,278.5 C 488.491,278.166 490.824,279.166 492.5,281.5C 489.843,281.065 487.509,280.065 485.5,278.5 Z"/></g>
<g><path style="opacity:1" fill="#2e2a2b" d="M 474.5,277.5 C 475.833,277.5 477.167,277.5 478.5,277.5C 480.764,278.219 483.097,278.552 485.5,278.5C 487.509,280.065 489.843,281.065 492.5,281.5C 519.738,294.965 531.572,316.965 528,347.5C 522.165,372.835 506.665,388.835 481.5,395.5C 474.201,396.35 466.868,396.683 459.5,396.5C 458.041,396.567 456.708,396.234 455.5,395.5C 453.485,394.076 451.152,393.41 448.5,393.5C 430.918,387.086 418.752,375.086 412,357.5C 403.329,326.682 412.162,302.182 438.5,284C 443.525,281.244 448.858,279.411 454.5,278.5C 461.131,277.669 467.798,277.336 474.5,277.5 Z"/></g>
<g><path style="opacity:1" fill="#a6a4a5" d="M 456.5,282.5 C 455.07,283.537 453.403,284.204 451.5,284.5C 452.635,282.787 454.302,282.12 456.5,282.5 Z"/></g>
<g><path style="opacity:1" fill="#fdfdfd" d="M 493.5,386.5 C 490.053,387.083 487.053,388.416 484.5,390.5C 479.13,391.848 473.63,392.515 468,392.5C 464.749,392.458 461.583,392.125 458.5,391.5C 454.767,389.589 450.767,388.256 446.5,387.5C 432.795,381.461 423.128,371.461 417.5,357.5C 416.871,354.603 415.871,351.936 414.5,349.5C 409.764,319.803 420.764,298.303 447.5,285C 448.793,284.51 450.127,284.343 451.5,284.5C 453.403,284.204 455.07,283.537 456.5,282.5C 485.033,278.683 506.199,289.349 520,314.5C 529.664,345.561 520.83,369.561 493.5,386.5 Z"/></g>
<g><path style="opacity:1" fill="#a6342e" d="M 47.5,287.5 C 47.2766,291.162 46.2766,294.495 44.5,297.5C 44.7234,293.838 45.7234,290.505 47.5,287.5 Z"/></g>
<g><path style="opacity:1" fill="#5d2a26" d="M 579.5,291.5 C 581.065,293.509 582.065,295.843 582.5,298.5C 580.166,296.824 579.166,294.491 579.5,291.5 Z"/></g>
<g><path style="opacity:1" fill="#772d29" d="M 284.5,297.5 C 278.028,298.91 271.361,299.91 264.5,300.5C 263.5,300.5 262.5,300.5 261.5,300.5C 268.926,298.679 276.592,297.679 284.5,297.5 Z"/></g>
<g><path style="opacity:1" fill="#454344" d="M 355.5,299.5 C 337.67,301.1 319.67,302.433 301.5,303.5C 302.609,302.71 303.942,302.21 305.5,302C 322.144,300.644 338.811,299.811 355.5,299.5 Z"/></g>
<g><path style="opacity:1" fill="#632a27" d="M 261.5,300.5 C 262.5,300.5 263.5,300.5 264.5,300.5C 257.736,302.235 250.736,303.235 243.5,303.5C 249.28,301.957 255.28,300.957 261.5,300.5 Z"/></g>
<g><path style="opacity:1" fill="#5c2926" d="M 582.5,299.5 C 583.924,301.515 584.59,303.848 584.5,306.5C 583.076,304.485 582.41,302.152 582.5,299.5 Z"/></g>
<g><path style="opacity:1" fill="#5c2926" d="M 232.5,305.5 C 232.082,306.222 231.416,306.722 230.5,307C 227.854,307.497 225.187,307.664 222.5,307.5C 225.627,306.419 228.96,305.753 232.5,305.5 Z"/></g>
<g><path style="opacity:1" fill="#aaa7a8" d="M 540.5,305.5 C 543.14,310.085 544.806,315.085 545.5,320.5C 543.256,315.767 541.589,310.767 540.5,305.5 Z"/></g>
<g><path style="opacity:1" fill="#732c28" d="M 212.5,309.5 C 210.485,310.924 208.152,311.59 205.5,311.5C 207.515,310.076 209.848,309.41 212.5,309.5 Z"/></g>
<g><path style="opacity:1" fill="#882f2a" d="M 588.5,312.5 C 591.152,312.41 593.485,313.076 595.5,314.5C 592.848,314.59 590.515,313.924 588.5,312.5 Z"/></g>
<g><path style="opacity:1" fill="#8f302b" d="M 597.5,314.5 C 600.152,314.41 602.485,315.076 604.5,316.5C 601.848,316.59 599.515,315.924 597.5,314.5 Z"/></g>
<g><path style="opacity:1" fill="#93312c" d="M 616.5,319.5 C 619.152,319.41 621.485,320.076 623.5,321.5C 620.848,321.59 618.515,320.924 616.5,319.5 Z"/></g>
<g><path style="opacity:1" fill="#99322c" d="M 623.5,321.5 C 627.162,321.723 630.495,322.723 633.5,324.5C 629.838,324.277 626.505,323.277 623.5,321.5 Z"/></g>
<g><path style="opacity:1" fill="#a1342d" d="M 644.5,328.5 C 646.698,328.12 648.365,328.787 649.5,330.5C 647.597,330.204 645.93,329.537 644.5,328.5 Z"/></g>
<g><path style="opacity:1" fill="#ad362e" d="M 650.5,330.5 C 653.491,330.166 655.824,331.166 657.5,333.5C 654.843,333.065 652.509,332.065 650.5,330.5 Z"/></g>
<g><path style="opacity:1" fill="#5e2926" d="M 143.5,328.5 C 138.5,330.943 133.166,332.61 127.5,333.5C 132.5,331.057 137.834,329.39 143.5,328.5 Z"/></g>
<g><path style="opacity:1" fill="#a8352e" d="M 727.5,324.5 C 729.031,329.25 729.698,334.25 729.5,339.5C 728.111,334.731 727.444,329.731 727.5,324.5 Z"/></g>
<g><path style="opacity:1" fill="#6f6c6d" d="M 546.5,325.5 C 547.165,328.984 547.499,332.651 547.5,336.5C 547.713,341.767 547.046,346.767 545.5,351.5C 546.34,342.862 546.673,334.195 546.5,325.5 Z"/></g>
<g><path style="opacity:1" fill="#aa352e" d="M 660.5,334.5 C 663.491,334.166 665.824,335.166 667.5,337.5C 664.843,337.065 662.509,336.065 660.5,334.5 Z"/></g>
<g><path style="opacity:1" fill="#612926" d="M 125.5,334.5 C 119.059,337.204 112.392,339.537 105.5,341.5C 111.635,338.009 118.302,335.675 125.5,334.5 Z"/></g>
<g><path style="opacity:1" fill="#602926" d="M 103.5,341.5 C 99.9357,343.919 95.9357,345.586 91.5,346.5C 95.0643,344.081 99.0643,342.414 103.5,341.5 Z"/></g>
<g><path style="opacity:1" fill="#9f332d" d="M 38.5,332.5 C 38.3216,339.749 37.3216,346.749 35.5,353.5C 35.7646,346.264 36.7646,339.264 38.5,332.5 Z"/></g>
<g><path style="opacity:1" fill="#5b2826" d="M 89.5,346.5 C 87.9674,348.245 85.9674,349.245 83.5,349.5C 85.0326,347.755 87.0326,346.755 89.5,346.5 Z"/></g>
<g><path style="opacity:1" fill="#552825" d="M 81.5,349.5 C 79.9674,351.245 77.9674,352.245 75.5,352.5C 77.0326,350.755 79.0326,349.755 81.5,349.5 Z"/></g>
<g><path style="opacity:1" fill="#726f70" d="M 414.5,349.5 C 415.871,351.936 416.871,354.603 417.5,357.5C 415.345,355.383 414.345,352.716 414.5,349.5 Z"/></g>
<g><path style="opacity:1" fill="#552725" d="M 73.5,352.5 C 71.9674,354.245 69.9674,355.245 67.5,355.5C 69.0326,353.755 71.0326,352.755 73.5,352.5 Z"/></g>
<g><path style="opacity:1" fill="#9e332d" d="M 730.5,346.5 C 731.817,352.346 731.817,358.346 730.5,364.5C 728.974,364.006 727.641,363.339 726.5,362.5C 727.833,362.5 729.167,362.5 730.5,362.5C 730.5,357.167 730.5,351.833 730.5,346.5 Z"/></g>
<g><path style="opacity:1" fill="#532625" d="M 35.5,358.5 C 34.9644,361.698 35.631,364.365 37.5,366.5C 36.791,367.404 35.791,367.737 34.5,367.5C 34.19,364.287 34.5233,361.287 35.5,358.5 Z"/></g>
<g><path style="opacity:1" fill="#363537" d="M 68.5,361.5 C 66.6146,363.311 64.2813,364.478 61.5,365C 60.9032,366.062 60.5698,367.228 60.5,368.5C 62.0975,379.912 66.2642,390.245 73,399.5C 82.4193,412.125 94.9193,419.458 110.5,421.5C 86.5763,428.955 62.9096,437.288 39.5,446.5C 37.577,434.761 35.7437,423.095 34,411.5C 33.5001,399.171 33.3335,386.838 33.5,374.5C 45.5473,371.151 57.214,366.818 68.5,361.5 Z"/></g>
<g><path style="opacity:1" fill="#343132" d="M 352.5,379.5 C 333.667,381.059 314.667,382.393 295.5,383.5C 314.246,380.734 333.246,379.401 352.5,379.5 Z"/></g>
<g><path style="opacity:1" fill="#fefefe" d="M 419.5,453.5 C 421.102,455.074 423.102,455.741 425.5,455.5C 433.637,459.037 442.304,461.204 451.5,462C 467.38,463.374 483.046,462.208 498.5,458.5C 503.653,457.595 508.653,456.095 513.5,454C 514.056,453.617 514.389,453.117 514.5,452.5C 525.636,447.434 535.969,441.101 545.5,433.5C 549.5,431.5 552.5,428.5 554.5,424.5C 559.641,418.892 564.308,412.892 568.5,406.5C 571.106,405.348 573.773,405.182 576.5,406C 583.845,407.612 591.178,409.112 598.5,410.5C 600.515,411.924 602.848,412.59 605.5,412.5C 609.239,414.102 613.239,415.102 617.5,415.5C 619.515,416.924 621.848,417.59 624.5,417.5C 626.515,418.924 628.848,419.59 631.5,419.5C 633.102,421.074 635.102,421.741 637.5,421.5C 642.216,423.739 647.216,425.405 652.5,426.5C 656.88,427.678 661.213,429.012 665.5,430.5C 669.94,432.538 674.607,434.204 679.5,435.5C 693.748,440.815 708.081,445.982 722.5,451C 723.059,451.725 723.392,452.558 723.5,453.5C 721.891,457.373 720.891,461.373 720.5,465.5C 719.076,467.515 718.41,469.848 718.5,472.5C 717.172,476.818 715.839,481.151 714.5,485.5C 713.076,487.515 712.41,489.848 712.5,492.5C 709.267,498.852 706.6,505.518 704.5,512.5C 700.191,521.721 695.857,531.054 691.5,540.5C 690.094,540.973 689.427,541.973 689.5,543.5C 686.597,549.077 683.263,554.41 679.5,559.5C 677.405,560.412 675.405,561.579 673.5,563C 603.463,628.321 520.463,657.488 424.5,650.5C 419.402,649.043 414.069,648.376 408.5,648.5C 308.234,631.288 232.734,578.621 182,490.5C 175.897,477.293 170.064,463.96 164.5,450.5C 162.537,443.608 160.204,436.941 157.5,430.5C 156.117,425.584 155.117,420.584 154.5,415.5C 157.763,414.518 161.097,413.851 164.5,413.5C 167.152,413.59 169.485,412.924 171.5,411.5C 174.417,410.583 177.417,409.916 180.5,409.5C 183.152,409.59 185.485,408.924 187.5,407.5C 189.764,406.781 192.097,406.448 194.5,406.5C 199.124,406.237 203.458,405.237 207.5,403.5C 208.167,403.5 208.833,403.5 209.5,403.5C 212.152,403.59 214.485,402.924 216.5,401.5C 217.167,401.5 217.833,401.5 218.5,401.5C 221.152,401.59 223.485,400.924 225.5,399.5C 230.167,398.833 234.833,398.167 239.5,397.5C 244.122,397.844 248.455,397.177 252.5,395.5C 257.122,395.844 261.455,395.177 265.5,393.5C 294.376,389.133 323.376,387.133 352.5,387.5C 366.307,418.308 388.64,440.308 419.5,453.5 Z"/></g>
<g><path style="opacity:1" fill="#b1afb0" d="M 446.5,387.5 C 450.767,388.256 454.767,389.589 458.5,391.5C 454.085,391.139 450.085,389.806 446.5,387.5 Z"/></g>
<g><path style="opacity:1" fill="#636061" d="M 493.5,386.5 C 490.947,388.584 487.947,389.917 484.5,390.5C 487.053,388.416 490.053,387.083 493.5,386.5 Z"/></g>
<g><path style="opacity:1" fill="#666464" d="M 448.5,393.5 C 451.152,393.41 453.485,394.076 455.5,395.5C 452.848,395.59 450.515,394.924 448.5,393.5 Z"/></g>
<g><path style="opacity:1" fill="#b3b1b1" d="M 265.5,393.5 C 261.455,395.177 257.122,395.844 252.5,395.5C 256.639,394.437 260.972,393.77 265.5,393.5 Z"/></g>
<g><path style="opacity:1" fill="#c2c0c0" d="M 252.5,395.5 C 248.455,397.177 244.122,397.844 239.5,397.5C 243.639,396.437 247.972,395.77 252.5,395.5 Z"/></g>
<g><path style="opacity:1" fill="#b3b1b1" d="M 481.5,395.5 C 480.737,396.268 479.737,396.768 478.5,397C 471.986,397.82 465.653,397.653 459.5,396.5C 466.868,396.683 474.201,396.35 481.5,395.5 Z"/></g>
<g><path style="opacity:1" fill="#a3a0a1" d="M 225.5,399.5 C 223.485,400.924 221.152,401.59 218.5,401.5C 220.515,400.076 222.848,399.41 225.5,399.5 Z"/></g>
<g><path style="opacity:1" fill="#c2c0c0" d="M 216.5,401.5 C 214.485,402.924 212.152,403.59 209.5,403.5C 211.515,402.076 213.848,401.41 216.5,401.5 Z"/></g>
<g><path style="opacity:1" fill="#bfbebe" d="M 207.5,403.5 C 203.458,405.237 199.124,406.237 194.5,406.5C 194.918,405.778 195.584,405.278 196.5,405C 200.17,404.452 203.837,403.952 207.5,403.5 Z"/></g>
<g><path style="opacity:1" fill="#acabab" d="M 187.5,407.5 C 185.485,408.924 183.152,409.59 180.5,409.5C 182.515,408.076 184.848,407.41 187.5,407.5 Z"/></g>
<g><path style="opacity:1" fill="#454142" d="M 510.5,403.5 C 510.426,405.411 509.426,406.578 507.5,407C 501.974,409.342 496.308,411.175 490.5,412.5C 497.098,409.538 503.765,406.538 510.5,403.5 Z"/></g>
<g><path style="opacity:1" fill="#545152" d="M 598.5,410.5 C 601.152,410.41 603.485,411.076 605.5,412.5C 602.848,412.59 600.515,411.924 598.5,410.5 Z"/></g>
<g><path style="opacity:1" fill="#b5b3b4" d="M 171.5,411.5 C 169.485,412.924 167.152,413.59 164.5,413.5C 166.515,412.076 168.848,411.41 171.5,411.5 Z"/></g>
<g><path style="opacity:1" fill="#555253" d="M 617.5,415.5 C 620.152,415.41 622.485,416.076 624.5,417.5C 621.848,417.59 619.515,416.924 617.5,415.5 Z"/></g>
<g><path style="opacity:1" fill="#5c5959" d="M 624.5,417.5 C 627.152,417.41 629.485,418.076 631.5,419.5C 628.848,419.59 626.515,418.924 624.5,417.5 Z"/></g>
<g><path style="opacity:1" fill="#a09d9d" d="M 154.5,415.5 C 155.117,420.584 156.117,425.584 157.5,430.5C 158.675,437.698 161.009,444.365 164.5,450.5C 170.064,463.96 175.897,477.293 182,490.5C 232.734,578.621 308.234,631.288 408.5,648.5C 413.598,649.957 418.931,650.624 424.5,650.5C 520.463,657.488 603.463,628.321 673.5,563C 675.405,561.579 677.405,560.412 679.5,559.5C 638.105,627.033 580.438,675.033 506.5,703.5C 501.607,704.796 496.94,706.462 492.5,708.5C 434.129,726.873 374.796,730.54 314.5,719.5C 312.485,718.076 310.152,717.41 307.5,717.5C 216.278,696.452 144.444,647.118 92,569.5C 69.2418,533.979 53.0751,495.646 43.5,454.5C 43.7092,453.006 44.3759,451.839 45.5,451C 57.6637,446.112 69.9971,441.946 82.5,438.5C 87.3934,437.204 92.0601,435.538 96.5,433.5C 115.55,426.93 134.883,420.93 154.5,415.5 Z"/></g>
<g><path style="opacity:1" fill="#6c696a" d="M 631.5,419.5 C 633.898,419.259 635.898,419.926 637.5,421.5C 635.102,421.741 633.102,421.074 631.5,419.5 Z"/></g>
<g><path style="opacity:1" fill="#807e7e" d="M 637.5,421.5 C 642.915,422.194 647.915,423.86 652.5,426.5C 647.216,425.405 642.216,423.739 637.5,421.5 Z"/></g>
<g><path style="opacity:1" fill="#cbc9c9" d="M 554.5,424.5 C 552.5,428.5 549.5,431.5 545.5,433.5C 548.167,430.167 551.167,427.167 554.5,424.5 Z"/></g>
<g><path style="opacity:1" fill="#757273" d="M 665.5,430.5 C 670.703,431.009 675.37,432.676 679.5,435.5C 674.607,434.204 669.94,432.538 665.5,430.5 Z"/></g>
<g><path style="opacity:1" fill="#c9c8c8" d="M 157.5,430.5 C 160.204,436.941 162.537,443.608 164.5,450.5C 161.009,444.365 158.675,437.698 157.5,430.5 Z"/></g>
<g><path style="opacity:1" fill="#716f6f" d="M 96.5,433.5 C 92.0601,435.538 87.3934,437.204 82.5,438.5C 86.6303,435.676 91.297,434.009 96.5,433.5 Z"/></g>
<g><path style="opacity:1" fill="#575455" d="M 419.5,453.5 C 421.898,453.259 423.898,453.926 425.5,455.5C 423.102,455.741 421.102,455.074 419.5,453.5 Z"/></g>
<g><path style="opacity:1" fill="#c1bfc0" d="M 514.5,452.5 C 514.389,453.117 514.056,453.617 513.5,454C 508.653,456.095 503.653,457.595 498.5,458.5C 503.525,455.932 508.859,453.932 514.5,452.5 Z"/></g>
<g><path style="opacity:1" fill="#6d6b6b" d="M 720.5,465.5 C 720.59,468.152 719.924,470.485 718.5,472.5C 718.41,469.848 719.076,467.515 720.5,465.5 Z"/></g>
<g><path style="opacity:1" fill="#676565" d="M 714.5,485.5 C 714.59,488.152 713.924,490.485 712.5,492.5C 712.41,489.848 713.076,487.515 714.5,485.5 Z"/></g>
<g><path style="opacity:1" fill="#3c3839" d="M 712.5,492.5 C 712.421,493.93 712.754,495.264 713.5,496.5C 712.902,497.795 712.402,499.128 712,500.5C 711.333,499.167 710.667,499.167 710,500.5C 708.345,502.747 708.012,505.08 709,507.5C 707.261,509.043 705.761,510.71 704.5,512.5C 706.6,505.518 709.267,498.852 712.5,492.5 Z"/></g>
<g><path style="opacity:1" fill="#747272" d="M 691.5,540.5 C 691.573,542.027 690.906,543.027 689.5,543.5C 689.427,541.973 690.094,540.973 691.5,540.5 Z"/></g>
<g><path style="opacity:1" fill="#d4d3d4" d="M 408.5,648.5 C 414.069,648.376 419.402,649.043 424.5,650.5C 418.931,650.624 413.598,649.957 408.5,648.5 Z"/></g>
<g><path style="opacity:1" fill="#444142" d="M 506.5,703.5 C 502.37,706.324 497.703,707.991 492.5,708.5C 496.94,706.462 501.607,704.796 506.5,703.5 Z"/></g>
<g><path style="opacity:1" fill="#5a5758" d="M 307.5,717.5 C 310.152,717.41 312.485,718.076 314.5,719.5C 311.848,719.59 309.515,718.924 307.5,717.5 Z"/></g>
</svg>
