<svg id="Capa_1" data-name="Capa 1" xmlns="http://www.w3.org/2000/svg" xmlns:xlink="http://www.w3.org/1999/xlink" viewBox="0 0 60 60"><defs><style>.cls-1{fill:none;}.cls-2{fill:#fff;}.cls-3{fill:#55c971;}.cls-4{clip-path:url(#clip-path);}.cls-5{fill:#1d140d;}</style><clipPath id="clip-path"><circle class="cls-1" cx="30" cy="30" r="30"/></clipPath></defs><title>Mesa de trabajo 1</title><circle class="cls-2" cx="30" cy="30" r="30"/><ellipse class="cls-3" cx="21.5" cy="27" rx="9.5" ry="6"/><ellipse class="cls-3" cx="42.5" cy="41" rx="9.5" ry="6"/><g class="cls-4"><path class="cls-5" d="M36.78,51.88a11.4,11.4,0,0,1-4.1-4.2c.12.58-.18.61-.56.52a2,2,0,0,1-1.58-1.42,1.74,1.74,0,0,1,.53-2,.67.67,0,0,0,.11-1c-.19-.34-.37-.69-.58-1a3,3,0,0,1-.22-3A6.9,6.9,0,0,0,31,36.77a1.35,1.35,0,0,1,.23-.79,14.49,14.49,0,0,1,5-5.48,11.67,11.67,0,0,1,7-1.43c4.63.34,7.54,3,9.43,7,.51,1.09.31,2.23.54,3.32a9.47,9.47,0,0,1-.19,4.4,1.38,1.38,0,0,0,.26,1.11,1.9,1.9,0,0,1-.68,2.85,6,6,0,0,0-2.12,1.92,6.07,6.07,0,0,1-1.51,1.48c-.84.62-.86.72-.29,1.6a8.81,8.81,0,0,1,1,2.06.87.87,0,0,1-.33,1.08c-.67.49-1.33,1-2,1.48a1.67,1.67,0,0,1-1.49.21c-.73-.22-1.18,0-1.58.75a1.41,1.41,0,0,0,.19,1.92c.46.41.5.77.13,1.19a.47.47,0,0,1-.54.18c-.21-.07-.2-.24-.21-.41a21.85,21.85,0,0,1,0-2.29c0-.76-.2-1-1-1-1,0-2,.06-3,0-.69,0-.94.24-.93.94s0,1.22,0,1.84c0,.37-.15.62-.54.63a1.76,1.76,0,0,0-.68.22,1.87,1.87,0,0,1-2.23-.48c-.81-.87-1.54-1.81-2.39-2.65A1.67,1.67,0,0,0,32,58l-2.74,0c-.46,0-.67.22-.67.69,0,.89,0,1.79,0,2.68,0,.27.14.64-.25.77s-.53-.21-.72-.46a9.34,9.34,0,0,0-3.95-3.33,7.71,7.71,0,0,0-5.39-.26,3.8,3.8,0,0,1-3.85-.72c-1.18-1-2.39-1.89-3.52-2.91a1.08,1.08,0,0,1-.37-1.28c.71-2.38,1.39-4.77,2.08-7.16a1.54,1.54,0,0,1,1.1-1.08c1.52-.47,3-1,4.54-1.5.4-.13.71-.32.7-.8s-.35-.62-.72-.73a5.09,5.09,0,0,1-2.52-1.73,12.62,12.62,0,0,1-1-1.84,22.43,22.43,0,0,1-1.52-5.92.85.85,0,0,0-.15-.6v.57a15.15,15.15,0,0,0,2.41,7.92,1,1,0,0,1-1.09,1A.47.47,0,0,1,14,40.8c0-.37-.06-.74-.11-1.11s-.3-.78-.85-.73-1.15.08-1.72.12c-.42,0-.57-.16-.5-.58a11.4,11.4,0,0,1,.5-1.82c.25-.8,0-1.23-.79-1.38a17.52,17.52,0,0,1-2.24-.68c-.53-.18-.59-.35-.2-.79a13.11,13.11,0,0,1,2-2c.56-.41.57-.57.12-1.12a6,6,0,0,0-3.6-2,1.06,1.06,0,0,1-.84-.43L8.94,26l.46-.32c.67-.49.7-.7.26-1.42a14.73,14.73,0,0,0-2.6-3.12c-.24-.22-.66-.45-.55-.76s.56-.14.87-.17l4.78-.37c.61,0,.76-.26.6-.84a14.83,14.83,0,0,0-1.34-3.82c-.09-.14-.17-.3-.05-.46s.28-.05.41,0a10.55,10.55,0,0,1,3.8,1.39c.41.26.66.19.87-.25a14.08,14.08,0,0,0,1-4.09,3.11,3.11,0,0,1,.06-.44c.06-.21-.05-.52.18-.6s.48.17.65.35a37,37,0,0,1,2.72,3.39c.55.74.61.74,1.21,0a14.32,14.32,0,0,1,4.2-3.25c.47-.26.65-.12.62.48a19,19,0,0,0,.38,4.93c.17.74.35.82,1,.57l3.56-1.3c.17-.06.36-.21.51,0s0,.37-.14.54c-.81,1.37-1.61,2.75-2.43,4.12-.26.43-.1.61.33.68l3.86.56c.19,0,.39,0,.47.22s-.08.36-.24.51c-1,1-2.18,1.9-3.17,3-.27.3-.2.39.13.51,1,.42,2.09.86,3.13,1.3.2.08.46.13.46.41s-.21.33-.38.44a17.34,17.34,0,0,1-4.5,2c-.18.06-.43,0-.45.32s.17.3.3.42a13.18,13.18,0,0,0,2.31,1.45c.62.34.62.55,0,.89a8.54,8.54,0,0,1-2,.83c-.67.17-.82.52-.52,1.16.12.25.27.49.38.75.23.59,0,.92-.59,1-.35.06-.71.05-1.05.14-.51.14-.59.38-.29.81a4.1,4.1,0,0,0,.49.53c.49.5.4.87-.27,1.1a1.11,1.11,0,0,1-.26.07,2.49,2.49,0,0,0-1.85,1.1,3.19,3.19,0,0,1-1.92,1.34c-.48.11-.47.45-.47.81s0,.67.46.78c1.38.37,2.75.8,4.14,1.11a1.41,1.41,0,0,1,1.21,1.18c.28,1.31.75,2.56,1.12,3.84.64,2.23,1.27,4.47,1.8,6.72.1.45.24.83.81.81a.85.85,0,0,0,.91-.83,15.41,15.41,0,0,1,1.6-3.9c.17-.34.5-.33.81-.35l.82.33a11.45,11.45,0,0,0,4.45.71c.14.12.28.07.43,0a.38.38,0,0,0-.4-.08,15.27,15.27,0,0,1-4.51-1A1.79,1.79,0,0,0,36.78,51.88Zm3.47-13.16a2.26,2.26,0,0,1-2,1.73,13.69,13.69,0,0,1-3.19.43c-.91,0-1.12.31-.92,1.19A3.82,3.82,0,0,0,38.65,45a3.46,3.46,0,0,0,2.86-2.71A3.36,3.36,0,0,0,40.25,38.72Zm7,6.15A3.86,3.86,0,0,0,49,44.3a3.23,3.23,0,0,0,1.7-2.82c0-.38-.1-.68-.57-.63a12.72,12.72,0,0,1-3.42-.36,3.16,3.16,0,0,1-1.86-.93c-.18-.2-.19-.67-.52-.59s-.4.41-.58.65a2.52,2.52,0,0,0-.28.48C42.57,42.31,44.39,44.86,47.28,44.87ZM17.5,24.27a2.87,2.87,0,0,0-2.85,3.34c.13.63.36.78,1,.62a6.62,6.62,0,0,1,2.87-.13,7.35,7.35,0,0,0,1.05.13.52.52,0,0,0,.6-.44A2.92,2.92,0,0,0,17.5,24.27Zm6,1.18h-.38a1.43,1.43,0,0,0-1.44,2,.48.48,0,0,0,.51.43,14.14,14.14,0,0,1,4.29.47c.42.11.67-.09.74-.53a1.45,1.45,0,0,0-.79-1.57A6.4,6.4,0,0,0,23.54,25.45Zm2.18,20.29c0,.08,0,.11,0,.14,1,1.79,1.75,3.65,2.54,5.51a1.37,1.37,0,0,1-.41,1.88c-.5.45-1,.91-1.46,1.37a.46.46,0,0,0,0,.79c.65.55,1.28,1.13,1.92,1.69.09.08.19.26.31.11s-.07-.24-.16-.32a14.08,14.08,0,0,1-1.58-1.41c-.38-.42-.35-.65.08-1l1.37-1.22a1.2,1.2,0,0,0,.41-1.4,34,34,0,0,0-2.63-5.76C26.06,45.94,26,45.75,25.72,45.74Z"/></g></svg>