<svg xmlns="http://www.w3.org/2000/svg" viewBox="0 0 60.01 59.89"><defs><style>.cls-1{fill:#e8eaeb;}.cls-2{fill:#151616;}.cls-3{fill:#85888e;}</style></defs><title>Recurso 2</title><g id="Capa_2" data-name="Capa 2"><g id="Capa_1-2" data-name="Capa 1"><path class="cls-1" d="M60.06,59c0,.26,0,.52,0,.78s0,.18-.18.18h-7c.06-.15-.08-.17-.15-.22a4,4,0,0,0-3.81-.63,2.78,2.78,0,0,0-1.38.85h-14c0-.26,0-.52-.08-.77a5.22,5.22,0,0,0-10.36.77H.33C.1,60,0,59.89.06,59.67s0-.5,0-.75a.58.58,0,0,0,.23,0,8.57,8.57,0,0,0,6.26-7.37,8.37,8.37,0,0,0-2.42-7A8.57,8.57,0,0,0,.06,42.18V34a5.72,5.72,0,0,0,2.47,0,5.81,5.81,0,0,0,4.62-6.27A5.85,5.85,0,0,0,2.5,22.55a7.14,7.14,0,0,0-2.44,0V16.14l.15.13A8.46,8.46,0,0,0,8,19,8.63,8.63,0,1,0,1.09,3.86c-.36.29-.69.62-1,.94,0-1.5,0-3,0-4.5C.05.09.09.05.3.05H23.1a4.41,4.41,0,0,0,0,.81,5.2,5.2,0,0,0,6,4.39A5.17,5.17,0,0,0,33.54.06H47.28a1,1,0,0,1-.23.31,4,4,0,0,0-.54,4.24A3.88,3.88,0,0,0,50,7a4.07,4.07,0,0,0,3.81-5.91c-.19-.37-.48-.68-.69-1h6.69c.18,0,.22,0,.22.22,0,1.57,0,3.14,0,4.71-.14-.05-.17.09-.23.16A8.66,8.66,0,0,0,59.93,16s0,.12.13.07v6.6a.34.34,0,0,0-.26,0A5.83,5.83,0,0,0,60.06,34v8.22a8.77,8.77,0,0,0-4,0,8.61,8.61,0,0,0-5.56,12.75,8.35,8.35,0,0,0,8.12,4.28C59.12,59.15,59.58,59,60.06,59ZM21.45,33a5.23,5.23,0,1,0-5.17,5.24A5.21,5.21,0,0,0,21.45,33Zm21.27-11.7a5.23,5.23,0,1,0-5.22-5.24A5.22,5.22,0,0,0,42.72,21.33ZM38.15,34.76a5.22,5.22,0,1,0,5.19-5.24A5.19,5.19,0,0,0,38.15,34.76ZM26.94,45a4.07,4.07,0,1,0,4-4.09A4.06,4.06,0,0,0,26.94,45Zm.5-32.29a4.08,4.08,0,1,0,4.06,4.05A4.09,4.09,0,0,0,27.44,12.66ZM10.12,53.92a4.07,4.07,0,1,0,4.08-4.06A4.06,4.06,0,0,0,10.12,53.92Z" transform="translate(-0.05 -0.05)"/><path class="cls-2" d="M.06,4.8c.34-.32.67-.65,1-.94A8.63,8.63,0,1,1,8,19a8.46,8.46,0,0,1-7.8-2.73l-.15-.13V14.46c.15-.06.14.08.18.15a7.59,7.59,0,0,0,11,1.91,7.45,7.45,0,0,0,3-5.16c0-.37,0-.38-.33-.38H10.25c-.2,0-.26.06-.3.26a3.42,3.42,0,0,1-6.68,0C3.23,11,3.17,11,3,11H.06V10C1,10,1.9,10,2.82,10c.3,0,.42-.07.49-.37a3.4,3.4,0,0,1,4-2.48A3.36,3.36,0,0,1,10,9.72c0,.16.07.26.28.26,1.22,0,2.44,0,3.66,0,.25,0,.27-.09.25-.3a7.39,7.39,0,0,0-1.64-4A7.35,7.35,0,0,0,5.73,3,7.35,7.35,0,0,0,.25,6.36c0,.07,0,.2-.19.18Zm6.55,8.12A2.44,2.44,0,1,0,4.16,10.5,2.44,2.44,0,0,0,6.61,12.92Z" transform="translate(-0.05 -0.05)"/><path class="cls-1" d="M.06,11H3c.17,0,.23,0,.27.22a3.42,3.42,0,0,0,6.68,0c0-.2.1-.26.3-.26h3.57c.37,0,.38,0,.33.38a7.45,7.45,0,0,1-3,5.16,7.59,7.59,0,0,1-11-1.91c0-.07,0-.21-.18-.15Z" transform="translate(-0.05 -0.05)"/><path class="cls-3" d="M.06,6.54c.14,0,.14-.11.19-.18A7.35,7.35,0,0,1,5.73,3a7.35,7.35,0,0,1,6.78,2.76,7.39,7.39,0,0,1,1.64,4c0,.21,0,.3-.25.3-1.22,0-2.44,0-3.66,0C10,10,10,9.88,10,9.72A3.36,3.36,0,0,0,7.3,7.13a3.4,3.4,0,0,0-4,2.48c-.07.3-.19.38-.49.37C1.9,10,1,10,.06,10Z" transform="translate(-0.05 -0.05)"/><path class="cls-2" d="M60.06,59c-.48,0-.94.17-1.42.19a8.35,8.35,0,0,1-8.12-4.28,8.61,8.61,0,0,1,5.56-12.75,8.77,8.77,0,0,1,4,0v1.08a.7.7,0,0,1-.32,0,7.45,7.45,0,0,0-3-.11,7.6,7.6,0,0,0-6.33,7.7c0,.24.07.31.32.27l3.53-.49c.21,0,.29-.09.32-.32a3.4,3.4,0,0,1,3.75-3.1,3.82,3.82,0,0,1,1.74.66v1.32c-.16.07-.17-.09-.22-.15a2.39,2.39,0,0,0-1.69-.86,2.44,2.44,0,1,0,1.74,4c0-.05,0-.19.17-.14v1.38c-.06,0-.09,0-.13,0a3.42,3.42,0,0,1-5.18-1.69c-.06-.17-.15-.16-.27-.14-1.24.18-2.49.36-3.73.52-.18,0-.19.1-.15.24s.14.52.23.77a7.57,7.57,0,0,0,8,5c.41-.05.83-.13,1.25-.19Z" transform="translate(-0.05 -0.05)"/><path class="cls-3" d="M60.06,47.82a3.82,3.82,0,0,0-1.74-.66,3.4,3.4,0,0,0-3.75,3.1c0,.23-.11.3-.32.32l-3.53.49c-.25,0-.31,0-.32-.27a7.6,7.6,0,0,1,6.33-7.7,7.45,7.45,0,0,1,3,.11.7.7,0,0,0,.32,0Z" transform="translate(-0.05 -0.05)"/><path class="cls-1" d="M60.06,57.9c-.42.06-.84.14-1.25.19a7.57,7.57,0,0,1-8-5c-.09-.25-.15-.51-.23-.77s0-.21.15-.24c1.24-.16,2.49-.34,3.73-.52.12,0,.21,0,.27.14a3.42,3.42,0,0,0,5.18,1.69s.07-.07.13,0Z" transform="translate(-0.05 -0.05)"/><path class="cls-2" d="M.06,42.18a8.57,8.57,0,0,1,4.07,2.34,8.37,8.37,0,0,1,2.42,7A8.57,8.57,0,0,1,.29,58.89a.58.58,0,0,1-.23,0V57.84a7.34,7.34,0,0,0,4.23-3.09,7.33,7.33,0,0,0,1.25-4.48c0-.15,0-.26-.22-.23-1.25.19-2.49.36-3.74.53-.18,0-.19.11-.2.25a3.34,3.34,0,0,1-1.2,2.36s-.06.08-.12,0V51.78a2.28,2.28,0,0,0,0-2.46V47.94c.12,0,.18.06.25.12a2.78,2.78,0,0,1,.81,1.17c.11.36.3.36.6.32,1.1-.16,2.21-.32,3.32-.46.28,0,.35-.11.27-.39A7.44,7.44,0,0,0,3.09,45a6.83,6.83,0,0,0-3-1.68Z" transform="translate(-0.05 -0.05)"/><path class="cls-1" d="M.06,53.22c.06,0,.09,0,.12,0a3.34,3.34,0,0,0,1.2-2.36c0-.14,0-.23.2-.25,1.25-.17,2.49-.34,3.74-.53.22,0,.22.08.22.23a7.33,7.33,0,0,1-1.25,4.48A7.34,7.34,0,0,1,.06,57.84Z" transform="translate(-0.05 -0.05)"/><path class="cls-3" d="M.06,33.24v-3l.11,0a2.22,2.22,0,0,0,2.61-.19,2.2,2.2,0,0,0,.79-2.44c0-.18,0-.23.16-.29l1.94-1.07c.32-.17.32-.17.45.18A5.1,5.1,0,0,1,3.51,32.9,5.32,5.32,0,0,1,.06,33.24Z" transform="translate(-0.05 -0.05)"/><path class="cls-2" d="M.06,33.24a5.32,5.32,0,0,0,3.45-.34,5.1,5.1,0,0,0,2.61-6.44c-.13-.35-.13-.35-.45-.18L3.73,27.35c-.12.06-.21.11-.16.29a2.2,2.2,0,0,1-.79,2.44,2.22,2.22,0,0,1-2.61.19l-.11,0V29.4c.12,0,.14.07.19.12a1.71,1.71,0,0,0,1.22.41A1.66,1.66,0,1,0,.26,27c-.05,0-.08.18-.2.1v-.78a2.3,2.3,0,0,1,3,.41.21.21,0,0,0,.28.05c.7-.4,1.4-.8,2.11-1.18.18-.09.18-.15.07-.3a5.1,5.1,0,0,0-4.08-2.16,10.71,10.71,0,0,0-1.39.12v-.72a7.14,7.14,0,0,1,2.44,0,5.85,5.85,0,0,1,4.65,5.17A5.81,5.81,0,0,1,2.53,34,5.72,5.72,0,0,1,.06,34Z" transform="translate(-0.05 -0.05)"/><path class="cls-3" d="M.06,43.32a6.83,6.83,0,0,1,3,1.68,7.44,7.44,0,0,1,2.22,3.7c.08.28,0,.35-.27.39-1.11.14-2.22.3-3.32.46-.3,0-.49,0-.6-.32a2.78,2.78,0,0,0-.81-1.17c-.07-.06-.13-.17-.25-.12Z" transform="translate(-0.05 -0.05)"/><path class="cls-1" d="M60.06,52c-.13-.05-.13.09-.17.14a2.45,2.45,0,1,1-1.74-4,2.39,2.39,0,0,1,1.69.86c0,.06.06.22.22.15Z" transform="translate(-0.05 -0.05)"/><path class="cls-1" d="M60.06,23.34V26.4c-.07,0-.11,0-.15.06a2.29,2.29,0,0,0-.8,2.42c0,.17,0,.24-.13.32-.69.36-1.37.73-2,1.12-.22.13-.28.07-.35-.13a5,5,0,0,1,1.12-5.51A4.39,4.39,0,0,1,60.06,23.34Z" transform="translate(-0.05 -0.05)"/><path class="cls-3" d="M23.76.06h2.46a2.08,2.08,0,0,0,2.63,2c.16,0,.21,0,.27.16.31.59.61,1.19.94,1.77.12.23,0,.29-.16.36a4.65,4.65,0,0,1-2.56.17A4.54,4.54,0,0,1,23.76.06Z" transform="translate(-0.05 -0.05)"/><path class="cls-1" d="M32.88,59.94H30.36a2,2,0,0,0-2.53-1.85c-.18,0-.24,0-.31-.15-.31-.6-.62-1.2-.95-1.79-.13-.22-.08-.28.13-.35a4.42,4.42,0,0,1,4,.37A4.36,4.36,0,0,1,32.88,59.94Z" transform="translate(-0.05 -0.05)"/><path class="cls-2" d="M53.16.06c.21.35.5.66.69,1A4.07,4.07,0,0,1,50,7a3.88,3.88,0,0,1-3.53-2.39A4,4,0,0,1,47.05.37a1,1,0,0,0,.23-.31H48c0,.17-.17.23-.27.32A3.6,3.6,0,0,0,47,4.44c.08.15.13.19.28.08.42-.27.84-.54,1.27-.8a.26.26,0,0,0,.13-.34,1.62,1.62,0,0,1,2.66-1.63.19.19,0,0,0,.28,0L52.89,1c.18-.1.17-.18,0-.34s-.42-.3-.5-.56Zm.63,2.86a3.89,3.89,0,0,0-.33-1.5c-.07-.15-.14-.19-.29-.09a9.93,9.93,0,0,1-1,.65c-.32.17-.51.35-.33.73a.52.52,0,0,1,0,.18,1.57,1.57,0,0,1-.89,1.48,1.48,1.48,0,0,1-1.73-.19.35.35,0,0,0-.5,0c-.36.25-.73.49-1.12.71s-.22.25-.05.44a3.62,3.62,0,0,0,3.91,1A3.59,3.59,0,0,0,53.79,2.92Zm-2.43,0a1.15,1.15,0,0,0-2.29,0,1.15,1.15,0,1,0,2.29,0Z" transform="translate(-0.05 -0.05)"/><path class="cls-2" d="M23.76.06a4.54,4.54,0,0,0,3.58,4.5,4.65,4.65,0,0,0,2.56-.17c.2-.07.28-.13.16-.36-.33-.58-.63-1.18-.94-1.77-.06-.11-.11-.19-.27-.16a2.08,2.08,0,0,1-2.63-2h.6c0,.12,0,.24.06.35a1.47,1.47,0,0,0,2.07,1A1.57,1.57,0,0,0,29.82.06h.54a1.9,1.9,0,0,1-.66,1.57c-.09.09-.16.15-.08.29.35.63.68,1.27,1,1.91.06.12.11.16.24.07a4.45,4.45,0,0,0,2-3.84h.66a5.17,5.17,0,0,1-4.43,5.2,5.2,5.2,0,0,1-6-4.39,4.41,4.41,0,0,1,0-.81Z" transform="translate(-0.05 -0.05)"/><path class="cls-2" d="M60.06,23.34a4.39,4.39,0,0,0-2.35,1.34,5,5,0,0,0-1.12,5.51c.07.2.13.26.35.13.67-.39,1.35-.76,2-1.12.15-.08.17-.15.13-.32a2.29,2.29,0,0,1,.8-2.42s.08-.09.15-.06v.9a1.52,1.52,0,0,0,0,2v.9a1.16,1.16,0,0,1-.44-.35c-.11-.13-.19-.12-.32,0-.68.38-1.35.76-2,1.12-.2.11-.2.19-.08.35a5.1,5.1,0,0,0,1.64,1.46,2.93,2.93,0,0,0,1.24.47V34a5.83,5.83,0,0,1-.26-11.31.34.34,0,0,1,.26,0Z" transform="translate(-0.05 -0.05)"/><path class="cls-2" d="M32.88,59.94a4.36,4.36,0,0,0-2.21-3.77,4.42,4.42,0,0,0-4-.37c-.21.07-.26.13-.13.35.33.59.64,1.19.95,1.79.07.15.13.19.31.15a2,2,0,0,1,2.53,1.85h-.6a.88.88,0,0,0-.18-.61A1.47,1.47,0,0,0,28,58.66a1.39,1.39,0,0,0-1.08,1.28h-.6a1.79,1.79,0,0,1,.63-1.37A.25.25,0,0,0,27,58.2q-.48-.89-.93-1.77c-.09-.17-.17-.22-.34-.09a4.44,4.44,0,0,0-1.94,3.6H23.1a5.22,5.22,0,0,1,10.36-.77c0,.25,0,.51.08.77Z" transform="translate(-0.05 -0.05)"/><path class="cls-1" d="M.06,23.28a10.71,10.71,0,0,1,1.39-.12,5.1,5.1,0,0,1,4.08,2.16c.11.15.11.21-.07.3-.71.38-1.41.78-2.11,1.18a.21.21,0,0,1-.28-.05,2.3,2.3,0,0,0-3-.41Z" transform="translate(-0.05 -0.05)"/><path class="cls-3" d="M52.44.06c.08.26.34.36.5.56s.13.24,0,.34l-1.29.81a.19.19,0,0,1-.28,0,1.62,1.62,0,0,0-2.66,1.63.26.26,0,0,1-.13.34c-.43.26-.85.53-1.27.8-.15.11-.2.07-.28-.08A3.6,3.6,0,0,1,47.73.38c.1-.09.26-.15.27-.32Z" transform="translate(-0.05 -0.05)"/><path class="cls-2" d="M60.06,16c-.08.05-.1,0-.13-.07a8.66,8.66,0,0,1-.1-10.81c.06-.07.09-.21.23-.16v1.8c-.07,0-.09.06-.12.12a7.71,7.71,0,0,0-.88,2.89c0,.17.07.19.19.18h.81v1h-.84c-.15,0-.18.06-.16.2a6.82,6.82,0,0,0,.35,1.66,4.48,4.48,0,0,0,.65,1.38Z" transform="translate(-0.05 -0.05)"/><path class="cls-1" d="M32.88.06a4.45,4.45,0,0,1-2,3.84c-.13.09-.18.05-.24-.07-.34-.64-.67-1.28-1-1.91-.08-.14,0-.2.08-.29A1.9,1.9,0,0,0,30.36.06Z" transform="translate(-0.05 -0.05)"/><path class="cls-1" d="M.06,27.12c.12.08.15-.06.2-.1a1.66,1.66,0,1,1,1.21,2.91,1.71,1.71,0,0,1-1.22-.41c0-.05-.07-.17-.19-.12Z" transform="translate(-0.05 -0.05)"/><path class="cls-3" d="M23.76,59.94a4.44,4.44,0,0,1,1.94-3.6c.17-.13.25-.08.34.09q.45.89.93,1.77a.25.25,0,0,1-.06.37,1.79,1.79,0,0,0-.63,1.37Z" transform="translate(-0.05 -0.05)"/><path class="cls-3" d="M60.06,33.18a2.93,2.93,0,0,1-1.24-.47,5.1,5.1,0,0,1-1.64-1.46c-.12-.16-.12-.24.08-.35.69-.36,1.36-.74,2-1.12.13-.07.21-.08.32,0a1.16,1.16,0,0,0,.44.35Z" transform="translate(-0.05 -0.05)"/><path class="cls-1" d="M29.82.06A1.57,1.57,0,0,1,29,1.43a1.47,1.47,0,0,1-2.07-1c0-.11,0-.23-.06-.35Z" transform="translate(-0.05 -0.05)"/><path class="cls-1" d="M26.88,59.94A1.39,1.39,0,0,1,28,58.66a1.47,1.47,0,0,1,1.62.67.88.88,0,0,1,.18.61Z" transform="translate(-0.05 -0.05)"/><path class="cls-2" d="M47.52,59.94a2.78,2.78,0,0,1,1.38-.85,4,4,0,0,1,3.81.63c.07.05.21.07.15.22h-.72a3.48,3.48,0,0,0-3.84,0Z" transform="translate(-0.05 -0.05)"/><path class="cls-1" d="M60.06,14.22a4.48,4.48,0,0,1-.65-1.38,6.82,6.82,0,0,1-.35-1.66c0-.14,0-.2.16-.2h.84Z" transform="translate(-0.05 -0.05)"/><path class="cls-3" d="M60.06,10h-.81c-.12,0-.21,0-.19-.18a7.71,7.71,0,0,1,.88-2.89c0-.06.05-.12.12-.12Z" transform="translate(-0.05 -0.05)"/><path class="cls-3" d="M48.3,59.94a3.48,3.48,0,0,1,3.84,0Z" transform="translate(-0.05 -0.05)"/><path class="cls-1" d="M.06,49.32a2.28,2.28,0,0,1,0,2.46Z" transform="translate(-0.05 -0.05)"/><path class="cls-1" d="M60.06,29.28a1.52,1.52,0,0,1,0-2Z" transform="translate(-0.05 -0.05)"/><path class="cls-2" d="M21.45,33a5.23,5.23,0,1,1-5.24-5.2A5.23,5.23,0,0,1,21.45,33Zm-5.22,4.6a4.59,4.59,0,0,0,4.26-2.87c.07-.19.07-.26-.15-.32-.66-.16-1.31-.34-2-.52a.25.25,0,0,0-.35.14,2.06,2.06,0,0,1-3.86-1c0-.17,0-.24-.21-.28-.62-.15-1.24-.32-1.85-.49-.4-.1-.4-.1-.45.32v0A4.58,4.58,0,0,0,16.23,37.63Zm.06-9.16A4.56,4.56,0,0,0,12,31.3c-.07.19-.08.28.15.34.66.16,1.32.34,2,.53a.22.22,0,0,0,.31-.12,2,2,0,0,1,2.37-1,2.08,2.08,0,0,1,1.52,2c0,.16.05.23.2.26.67.17,1.33.35,2,.54.19.05.24,0,.27-.18A4.58,4.58,0,0,0,16.29,28.47ZM14.75,33a1.48,1.48,0,0,0,2.95,0,1.48,1.48,0,1,0-2.95,0Z" transform="translate(-0.05 -0.05)"/><path class="cls-2" d="M42.72,21.33a5.23,5.23,0,1,1,5.22-5.22A5.21,5.21,0,0,1,42.72,21.33Zm4.59-5.21a5.75,5.75,0,0,0-.09-.93A4.62,4.62,0,0,0,41,11.83c-.16.06-.18.12-.1.27.34.62.66,1.23,1,1.86a.24.24,0,0,0,.32.14,2.06,2.06,0,0,1,1.86,3.55A.22.22,0,0,0,44,18c.33.6.66,1.21,1,1.82.1.21.18.2.34.08A4.6,4.6,0,0,0,47.31,16.12Zm-9.17-.24a4.7,4.7,0,0,0,1.11,3.22,4.63,4.63,0,0,0,5.07,1.31c.2-.08.25-.16.14-.37-.32-.57-.63-1.16-.93-1.74-.09-.18-.19-.2-.38-.17a2.07,2.07,0,0,1-1.84-3.55.25.25,0,0,0,.06-.37c-.31-.57-.63-1.14-.91-1.72-.13-.29-.25-.24-.45-.09A4.47,4.47,0,0,0,38.14,15.88Zm4.59-1.25a1.48,1.48,0,1,0,1.47,1.5A1.49,1.49,0,0,0,42.73,14.63Z" transform="translate(-0.05 -0.05)"/><path class="cls-2" d="M38.15,34.76A5.22,5.22,0,1,1,43.4,40,5.19,5.19,0,0,1,38.15,34.76Zm5.2-4.61a5.05,5.05,0,0,0-1.63.3c-.19.07-.24.13-.13.31q.49.91,1,1.83c.08.15.16.2.33.15a1.8,1.8,0,0,1,.95,0,2.07,2.07,0,0,1,.93,3.53.25.25,0,0,0-.06.37c.32.59.65,1.19.95,1.8.11.23.2.18.36.07a4.6,4.6,0,0,0-2.66-8.35Zm0,9.17a4.58,4.58,0,0,0,1.56-.27c.22-.07.29-.15.16-.37-.32-.58-.63-1.16-.92-1.75a.27.27,0,0,0-.37-.17A2.06,2.06,0,0,1,42,33.21c.13-.12.13-.2.05-.35-.31-.56-.61-1.14-.91-1.72-.17-.31-.17-.31-.47-.1A4.62,4.62,0,0,0,39,36.11,4.57,4.57,0,0,0,43.38,39.32Zm1.46-4.59a1.48,1.48,0,1,0-1.48,1.5A1.5,1.5,0,0,0,44.84,34.73Z" transform="translate(-0.05 -0.05)"/><path class="cls-2" d="M26.94,45A4.07,4.07,0,1,1,31,49,4.06,4.06,0,0,1,26.94,45Zm7.65,0a4,4,0,0,0-.33-1.5c-.08-.18-.15-.2-.31-.09-.43.28-.86.56-1.31.83-.13.08-.14.15-.1.29a1.61,1.61,0,0,1-.66,1.83,1.59,1.59,0,0,1-2-.17c-.14-.12-.21-.09-.33,0-.41.27-.82.54-1.24.78-.22.13-.21.22-.06.39a3.59,3.59,0,0,0,6.3-2.35Zm-3.21-3.56a3.63,3.63,0,0,0-3.63,5.05c.08.17.15.21.32.1q.62-.42,1.26-.81a.25.25,0,0,0,.13-.31,1.61,1.61,0,0,1,2.62-1.67.25.25,0,0,0,.36,0c.4-.26.8-.52,1.22-.76.2-.12.21-.21.05-.38A3.45,3.45,0,0,0,31.38,41.37ZM31,43.79A1.15,1.15,0,0,0,29.84,45a1.16,1.16,0,0,0,2.32,0A1.15,1.15,0,0,0,31,43.79Z" transform="translate(-0.05 -0.05)"/><path class="cls-2" d="M27.44,12.66a4.08,4.08,0,1,1-4.09,4.06A4.07,4.07,0,0,1,27.44,12.66Zm0,7.66a3.59,3.59,0,0,0,2.72-1.24c.13-.15.14-.22,0-.33-.44-.27-.86-.55-1.28-.84a.21.21,0,0,0-.31,0,1.6,1.6,0,0,1-2.61-1.67c.05-.17,0-.24-.14-.33-.41-.26-.83-.52-1.23-.8-.19-.14-.26-.1-.35.1A3.6,3.6,0,0,0,27.42,20.32ZM31,16.71a3.58,3.58,0,0,0-6.27-2.34c-.14.17-.14.24.05.36.41.24.81.51,1.2.79a.28.28,0,0,0,.39,0,1.61,1.61,0,0,1,1.95-.12A1.63,1.63,0,0,1,29,17.23c0,.14,0,.21.1.29l1.28.83c.16.11.23.09.31-.08A3.91,3.91,0,0,0,31,16.71Zm-3.57-1.12a1.13,1.13,0,0,0-1.16,1.12,1.16,1.16,0,0,0,1.14,1.18,1.15,1.15,0,0,0,1.16-1.13A1.13,1.13,0,0,0,27.44,15.59Z" transform="translate(-0.05 -0.05)"/><path class="cls-2" d="M10.12,53.92A4.07,4.07,0,1,1,14.17,58,4.07,4.07,0,0,1,10.12,53.92Zm7.65-.06a3.61,3.61,0,0,0-.33-1.44c-.07-.15-.13-.2-.29-.09-.43.29-.87.56-1.31.83a.23.23,0,0,0-.12.31,1.6,1.6,0,0,1-2.62,1.65.21.21,0,0,0-.31,0l-1.31.83c-.17.1-.16.17,0,.31a3.59,3.59,0,0,0,6.33-2.38ZM10.62,54a3.5,3.5,0,0,0,.31,1.45c.07.17.15.21.31.1l1.29-.82a.2.2,0,0,0,.11-.29,1.47,1.47,0,0,1-.07-.59,1.58,1.58,0,0,1,1-1.37,1.53,1.53,0,0,1,1.68.25.29.29,0,0,0,.41,0c.38-.27.78-.52,1.18-.75.23-.13.23-.22.06-.42a3.63,3.63,0,0,0-4-1A3.54,3.54,0,0,0,10.62,54Zm3.58,1.12A1.15,1.15,0,1,0,13,53.94,1.15,1.15,0,0,0,14.2,55.09Z" transform="translate(-0.05 -0.05)"/><path class="cls-1" d="M6.61,12.92a2.44,2.44,0,1,1,2.45-2.45A2.45,2.45,0,0,1,6.61,12.92Z" transform="translate(-0.05 -0.05)"/><path class="cls-1" d="M53.79,2.92a3.59,3.59,0,0,1-2.34,3.37,3.62,3.62,0,0,1-3.91-1c-.17-.19-.21-.3.05-.44s.76-.46,1.12-.71a.35.35,0,0,1,.5,0,1.48,1.48,0,0,0,1.73.19,1.57,1.57,0,0,0,.89-1.48.52.52,0,0,0,0-.18c-.18-.38,0-.56.33-.73a9.93,9.93,0,0,0,1-.65c.15-.1.22-.06.29.09A3.89,3.89,0,0,1,53.79,2.92Z" transform="translate(-0.05 -0.05)"/><path class="cls-1" d="M51.36,2.93a1.15,1.15,0,1,1-2.29,0,1.15,1.15,0,0,1,2.29,0Z" transform="translate(-0.05 -0.05)"/><path class="cls-1" d="M16.23,37.63a4.58,4.58,0,0,1-4.58-5v0c0-.42,0-.42.45-.32.61.17,1.23.34,1.85.49.17,0,.21.11.21.28a2.06,2.06,0,0,0,3.86,1,.25.25,0,0,1,.35-.14c.66.18,1.31.36,2,.52.22.06.22.13.15.32A4.59,4.59,0,0,1,16.23,37.63Z" transform="translate(-0.05 -0.05)"/><path class="cls-3" d="M16.29,28.47a4.58,4.58,0,0,1,4.48,5.22c0,.18-.08.23-.27.18-.67-.19-1.33-.37-2-.54-.15,0-.2-.1-.2-.26a2.08,2.08,0,0,0-1.52-2,2,2,0,0,0-2.37,1,.22.22,0,0,1-.31.12c-.65-.19-1.31-.37-2-.53-.23-.06-.22-.15-.15-.34A4.56,4.56,0,0,1,16.29,28.47Z" transform="translate(-0.05 -0.05)"/><path class="cls-1" d="M14.75,33a1.48,1.48,0,1,1,1.47,1.49A1.47,1.47,0,0,1,14.75,33Z" transform="translate(-0.05 -0.05)"/><path class="cls-1" d="M47.31,16.12a4.6,4.6,0,0,1-2,3.75c-.16.12-.24.13-.34-.08-.31-.61-.64-1.22-1-1.82a.22.22,0,0,1,.05-.32,2.06,2.06,0,0,0-1.86-3.55.24.24,0,0,1-.32-.14c-.32-.63-.64-1.24-1-1.86-.08-.15-.06-.21.1-.27a4.62,4.62,0,0,1,6.19,3.36A5.75,5.75,0,0,1,47.31,16.12Z" transform="translate(-0.05 -0.05)"/><path class="cls-3" d="M38.14,15.88A4.47,4.47,0,0,1,40,12.4c.2-.15.32-.2.45.09.28.58.6,1.15.91,1.72a.25.25,0,0,1-.06.37,2.07,2.07,0,0,0,1.84,3.55c.19,0,.29,0,.38.17.3.58.61,1.17.93,1.74.11.21.06.29-.14.37a4.63,4.63,0,0,1-5.07-1.31A4.7,4.7,0,0,1,38.14,15.88Z" transform="translate(-0.05 -0.05)"/><path class="cls-1" d="M42.73,14.63a1.48,1.48,0,1,1-1.5,1.47A1.49,1.49,0,0,1,42.73,14.63Z" transform="translate(-0.05 -0.05)"/><path class="cls-1" d="M43.35,30.15A4.6,4.6,0,0,1,46,38.5c-.16.11-.25.16-.36-.07-.3-.61-.63-1.21-.95-1.8a.25.25,0,0,1,.06-.37,2.07,2.07,0,0,0-.93-3.53,1.8,1.8,0,0,0-.95,0c-.17,0-.25,0-.33-.15q-.46-.92-1-1.83c-.11-.18-.06-.24.13-.31A5.05,5.05,0,0,1,43.35,30.15Z" transform="translate(-0.05 -0.05)"/><path class="cls-3" d="M43.38,39.32A4.57,4.57,0,0,1,39,36.11,4.62,4.62,0,0,1,40.64,31c.3-.21.3-.21.47.1.3.58.6,1.16.91,1.72.08.15.08.23-.05.35a2.06,2.06,0,0,0,1.84,3.55.27.27,0,0,1,.37.17c.29.59.6,1.17.92,1.75.13.22.06.3-.16.37A4.58,4.58,0,0,1,43.38,39.32Z" transform="translate(-0.05 -0.05)"/><path class="cls-1" d="M44.84,34.73a1.48,1.48,0,1,1-1.5-1.47A1.49,1.49,0,0,1,44.84,34.73Z" transform="translate(-0.05 -0.05)"/><path class="cls-1" d="M34.59,44.93a3.59,3.59,0,0,1-6.3,2.35c-.15-.17-.16-.26.06-.39.42-.24.83-.51,1.24-.78.12-.08.19-.11.33,0a1.59,1.59,0,0,0,2,.17,1.61,1.61,0,0,0,.66-1.83c0-.14,0-.21.1-.29.45-.27.88-.55,1.31-.83.16-.11.23-.09.31.09A4,4,0,0,1,34.59,44.93Z" transform="translate(-0.05 -0.05)"/><path class="cls-3" d="M31.38,41.37a3.45,3.45,0,0,1,2.33,1.23c.16.17.15.26-.05.38-.42.24-.82.5-1.22.76a.25.25,0,0,1-.36,0,1.61,1.61,0,0,0-2.62,1.67.25.25,0,0,1-.13.31q-.64.39-1.26.81c-.17.11-.24.07-.32-.1A3.63,3.63,0,0,1,31.38,41.37Z" transform="translate(-0.05 -0.05)"/><path class="cls-1" d="M31,43.79a1.15,1.15,0,1,1,0,2.3A1.17,1.17,0,0,1,29.84,45,1.15,1.15,0,0,1,31,43.79Z" transform="translate(-0.05 -0.05)"/><path class="cls-1" d="M27.42,20.32a3.6,3.6,0,0,1-3.24-5.1c.09-.2.16-.24.35-.1.4.28.82.54,1.23.8.14.09.19.16.14.33a1.6,1.6,0,0,0,2.61,1.67.21.21,0,0,1,.31,0c.42.29.84.57,1.28.84.18.11.17.18,0,.33A3.59,3.59,0,0,1,27.42,20.32Z" transform="translate(-0.05 -0.05)"/><path class="cls-3" d="M31,16.71a3.91,3.91,0,0,1-.35,1.56c-.08.17-.15.19-.31.08l-1.28-.83c-.13-.08-.14-.15-.1-.29a1.63,1.63,0,0,0-.64-1.85,1.61,1.61,0,0,0-1.95.12.28.28,0,0,1-.39,0c-.39-.28-.79-.55-1.2-.79-.19-.12-.19-.19-.05-.36A3.58,3.58,0,0,1,31,16.71Z" transform="translate(-0.05 -0.05)"/><path class="cls-1" d="M27.44,15.59a1.13,1.13,0,0,1,1.14,1.17,1.15,1.15,0,0,1-1.16,1.13,1.16,1.16,0,0,1-1.14-1.18A1.13,1.13,0,0,1,27.44,15.59Z" transform="translate(-0.05 -0.05)"/><path class="cls-1" d="M17.77,53.86a3.59,3.59,0,0,1-6.33,2.38c-.12-.14-.13-.21,0-.31l1.31-.83a.21.21,0,0,1,.31,0,1.6,1.6,0,0,0,2.62-1.65.23.23,0,0,1,.12-.31c.44-.27.88-.54,1.31-.83.16-.11.22-.06.29.09A3.61,3.61,0,0,1,17.77,53.86Z" transform="translate(-0.05 -0.05)"/><path class="cls-3" d="M10.62,54a3.54,3.54,0,0,1,2.29-3.37,3.63,3.63,0,0,1,4,1c.17.2.17.29-.06.42-.4.23-.8.48-1.18.75a.29.29,0,0,1-.41,0,1.53,1.53,0,0,0-1.68-.25,1.58,1.58,0,0,0-1,1.37,1.47,1.47,0,0,0,.07.59.2.2,0,0,1-.11.29l-1.29.82c-.16.11-.24.07-.31-.1A3.5,3.5,0,0,1,10.62,54Z" transform="translate(-0.05 -0.05)"/><path class="cls-1" d="M14.2,55.09A1.15,1.15,0,1,1,15.34,54,1.16,1.16,0,0,1,14.2,55.09Z" transform="translate(-0.05 -0.05)"/></g></g></svg>